<svg class="img-fluid" id="outputsvg" xmlns="http://www.w3.org/2000/svg" style="transform: matrix(1, 0, 0, 1, 0, 0); transform-origin: 50% 50%; cursor: move; max-height: none; transition: transform 200ms ease-in-out 0s;" width="1000" height="562" viewBox="0 0 10000 5620"><g id="l4vtiFMxygrRDhWGpIDxAAI" fill="rgb(61,50,48)" style="transform: none;"><g style="transform: none;"><path id="pkHyodsJu" d="M0 5325 l0 -295 169 0 c123 0 200 5 287 20 174 30 355 76 414 106 27 13 124 30 335 59 114 16 382 94 395 115 5 8 61 33 180 79 74 30 102 43 120 57 8 7 40 22 70 34 113 44 160 73 160 97 0 22 -4 23 -62 23 -64 0 -119 -15 -189 -50 -21 -11 -45 -20 -53 -20 -9 0 -69 -17 -133 -39 -65 -21 -156 -49 -203 -61 -47 -13 -105 -29 -130 -37 -25 -7 -83 -18 -130 -23 -47 -6 -112 -15 -145 -20 -198 -31 -443 -32 -514 -4 -18 8 -44 14 -58 14 -23 0 -64 21 -93 49 -8 8 -34 23 -57 33 -23 10 -45 23 -49 29 -3 6 -21 17 -38 25 -36 17 -69 36 -76 46 -3 4 -22 18 -43 32 -30 21 -50 26 -97 26 l-60 0 0 -295z"></path><path id="p11ysLiFNi" d="M2695 5599 c-4 -11 -22 -27 -41 -36 -19 -9 -34 -22 -34 -29 0 -6 -11 -15 -25 -18 -21 -5 -25 -12 -25 -41 0 -34 1 -35 43 -35 23 0 57 4 76 10 33 9 33 9 15 -11 -11 -12 -36 -30 -56 -40 -26 -13 -38 -26 -38 -40 0 -14 -10 -25 -30 -32 -18 -7 -30 -19 -30 -29 0 -14 -8 -18 -35 -18 -33 0 -35 -2 -35 -35 0 -33 2 -35 35 -35 27 0 35 4 35 18 0 15 11 17 78 17 71 1 84 4 158 43 111 57 114 57 114 -20 -1 -35 -7 -76 -15 -93 l-13 -30 -1 33 c-1 32 -1 32 -51 32 l-50 0 0 -55 0 -55 50 0 49 0 3 -72 c2 -49 -2 -80 -11 -96 -10 -17 -12 -42 -7 -100 13 -138 24 -236 31 -268 5 -21 2 -35 -7 -45 -8 -8 -20 -47 -26 -87 -7 -41 -19 -81 -27 -89 -19 -18 -22 -37 -29 -140 -3 -46 -12 -96 -21 -112 -8 -17 -15 -39 -15 -50 0 -12 -13 -50 -30 -84 -16 -35 -30 -73 -30 -85 0 -11 -4 -23 -9 -27 -6 -3 -26 -38 -47 -78 -20 -39 -45 -83 -56 -97 -11 -14 -26 -40 -33 -57 -8 -18 -19 -33 -24 -33 -6 0 -11 -6 -11 -12 -1 -7 -14 -31 -30 -53 -97 -132 -120 -174 -120 -225 l0 -50 35 0 c19 0 35 5 35 10 0 6 7 10 15 10 8 0 15 4 15 10 0 5 30 40 68 78 37 37 85 97 107 133 58 94 131 243 144 295 13 52 87 221 106 244 7 8 23 44 34 79 12 36 28 75 36 88 8 12 15 29 15 36 0 8 7 20 15 27 13 10 15 9 15 -11 0 -32 10 -46 43 -58 22 -9 27 -17 27 -45 0 -20 -7 -55 -15 -80 -9 -25 -19 -64 -24 -88 -5 -24 -19 -86 -31 -138 -12 -52 -26 -122 -32 -155 -6 -33 -17 -72 -24 -87 -8 -15 -36 -92 -64 -170 -42 -122 -103 -294 -157 -442 -16 -45 -31 -75 -106 -218 -42 -79 -57 -117 -57 -147 0 -40 1 -41 33 -41 68 1 148 113 218 305 34 94 75 206 93 255 50 135 131 370 174 510 l30 95 1 -97 c1 -121 4 -128 48 -128 l35 0 -6 128 c-3 70 -8 231 -11 357 -3 127 -11 250 -16 275 -6 25 -17 83 -24 130 -8 47 -21 117 -30 155 -38 161 -55 288 -61 460 -4 99 -3 176 2 172 10 -10 54 -267 61 -357 3 -36 9 -68 15 -71 5 -3 13 -30 18 -60 5 -30 14 -76 20 -104 6 -27 8 -69 4 -93 -5 -36 -1 -53 26 -109 25 -50 33 -82 36 -137 16 -272 18 -386 10 -428 -8 -37 -6 -54 7 -80 10 -21 18 -66 20 -121 2 -52 8 -92 15 -96 6 -4 14 -49 18 -104 l7 -97 60 0 60 0 -9 148 c-9 155 -10 227 -3 517 3 171 -2 239 -30 370 -6 28 -15 93 -19 145 -5 52 -13 104 -17 115 -8 19 -8 19 9 3 11 -12 33 -18 61 -18 l43 0 6 54 c7 54 0 126 -13 126 -4 0 -12 42 -19 93 -15 107 -50 247 -63 247 -5 0 -9 9 -9 20 0 11 -4 20 -10 20 -5 0 -10 10 -10 23 0 12 -7 47 -16 77 -9 30 -20 80 -26 110 -6 30 -16 62 -23 70 -13 17 -27 54 -46 123 l-13 47 -263 0 c-255 0 -262 0 -268 -21z"></path><path id="p14nBzaSia" d="M9518 5410 c4 -180 2 -210 -10 -210 -16 0 -28 -63 -28 -142 0 -37 1 -38 35 -38 28 0 35 4 35 20 0 11 5 20 10 20 6 0 10 -11 10 -23 0 -34 30 -57 73 -57 l37 0 0 45 c0 29 -4 45 -12 45 -8 1 -6 6 5 14 9 7 17 19 17 25 0 17 25 41 43 41 18 0 27 21 27 65 0 43 9 65 26 65 11 0 14 19 14 85 l0 85 30 0 c28 0 30 2 30 39 0 33 4 40 25 45 21 5 25 12 25 46 l0 40 -198 0 -197 0 3 -210z"></path><path id="plVoS1yCJ" d="M9456 4984 c-3 -9 -6 -29 -6 -45 0 -27 3 -29 38 -29 l37 0 -7 -117 c-4 -65 -5 -124 -3 -130 2 -7 20 -13 40 -13 32 0 35 3 35 29 0 15 3 50 7 77 6 44 8 46 13 19 4 -25 10 -30 39 -33 47 -5 55 7 47 72 -7 56 -8 56 -42 56 -28 0 -34 -4 -36 -22 0 -13 -4 -3 -7 22 -6 44 -7 45 -43 48 -37 3 -38 4 -38 43 0 38 -1 39 -34 39 -22 0 -36 -6 -40 -16z"></path><path id="pger2kDcy" d="M2670 4903 c-38 -7 -50 -22 -50 -61 l0 -35 61 7 c74 7 89 18 89 62 0 33 -1 34 -37 33 -21 -1 -49 -4 -63 -6z"></path><path id="pEEciRDEo" d="M6730 3501 c0 -49 -1 -51 -28 -51 -16 0 -51 7 -78 15 -36 11 -99 15 -230 15 -187 0 -259 -9 -445 -58 -89 -24 -249 -100 -249 -118 0 -9 -12 -14 -32 -14 -37 0 -147 -50 -148 -67 0 -33 -139 -9 -217 37 -41 24 -128 27 -157 5 -11 -8 -31 -15 -44 -15 -31 0 -148 -64 -156 -86 -10 -26 -7 -79 6 -92 15 -15 85 -15 143 0 40 11 50 10 81 -7 35 -19 160 -135 179 -167 6 -9 34 -51 63 -94 30 -42 85 -139 124 -215 69 -137 71 -139 103 -139 19 0 37 4 40 10 3 5 15 63 26 127 39 232 97 294 390 418 46 19 87 35 92 35 5 0 23 6 40 14 18 8 61 19 97 25 36 6 89 16 119 22 73 14 158 7 330 -27 25 -5 57 -30 117 -90 46 -46 84 -88 84 -93 0 -5 23 -49 51 -97 52 -90 81 -150 94 -194 14 -45 86 -184 107 -207 15 -16 33 -23 60 -23 36 0 38 2 38 32 0 39 -48 188 -60 188 -17 0 -63 115 -61 152 3 42 -12 75 -45 101 -36 28 -40 78 -14 150 44 121 59 191 59 278 1 73 4 89 21 104 23 21 28 96 8 113 -7 5 -47 13 -88 17 -41 4 -79 11 -85 15 -5 5 -44 11 -85 14 -41 3 -114 8 -162 12 l-88 6 0 -51z m-1094 -337 c-28 -25 -41 -31 -47 -23 -8 14 3 26 46 51 45 25 45 11 1 -28z"></path><path id="p2GtMF8DH" d="M7385 3500 c-3 -5 -24 -10 -46 -10 l-39 0 0 -59 c0 -50 3 -59 19 -64 16 -4 20 -15 23 -58 l3 -54 60 -8 c39 -6 70 -5 88 2 25 10 27 15 27 65 0 30 5 58 10 61 6 3 10 35 10 71 l0 64 -74 0 c-41 0 -78 -4 -81 -10z"></path><path id="pYmWOyU94" d="M3140 2985 l0 -165 35 0 35 0 0 165 0 165 -35 0 -35 0 0 -165z"></path><path id="p16Rq4XIzq" d="M6332 3004 c-29 -7 -74 -26 -98 -41 -25 -16 -53 -33 -62 -38 -9 -6 -33 -25 -52 -43 -19 -17 -40 -32 -47 -32 -17 0 -33 -33 -33 -69 0 -27 -3 -30 -37 -33 -35 -3 -38 -6 -41 -35 -3 -27 -7 -33 -28 -33 -21 0 -24 -5 -24 -35 0 -33 2 -35 35 -35 32 0 35 2 35 29 0 25 4 30 28 33 23 3 27 8 30 41 3 34 6 37 35 37 18 0 43 9 57 20 14 11 29 20 34 20 5 0 17 7 27 16 34 30 219 59 219 34 0 -5 18 -10 40 -10 24 0 40 5 40 12 0 6 9 3 20 -7 16 -14 31 -17 83 -13 35 3 76 12 93 21 26 13 32 13 58 0 36 -19 101 -83 146 -146 18 -26 37 -47 41 -47 5 0 15 -13 23 -29 17 -33 61 -54 102 -49 25 2 29 8 32 36 2 21 -4 42 -18 60 -43 57 -76 96 -102 124 -16 16 -28 34 -28 39 0 21 -113 119 -165 144 -28 13 -81 29 -116 34 -90 15 -264 12 -327 -5z"></path><path id="phfO3zEdB" d="M4637 2962 c-15 -15 -27 -38 -27 -50 0 -17 -6 -22 -24 -22 -27 0 -96 -70 -96 -98 0 -9 -11 -39 -25 -66 -24 -48 -25 -49 -25 -18 0 30 -2 32 -38 32 -49 0 -72 -24 -72 -73 0 -36 1 -37 37 -37 20 0 44 6 52 14 14 13 16 10 12 -30 l-3 -45 233 4 c129 2 257 9 284 14 173 36 165 33 165 69 0 31 2 33 38 36 35 3 37 5 40 41 4 47 -44 149 -101 213 l-39 44 -192 0 -192 0 -27 -28z"></path><path id="p5ZbBKwvw" d="M4445 2953 c-10 -16 -33 -41 -51 -56 -29 -24 -34 -35 -34 -73 0 -44 0 -44 34 -44 27 0 45 9 81 44 42 39 47 49 52 100 l6 56 -35 0 c-28 0 -40 -6 -53 -27z"></path><path id="pmcIFKpfc" d="M7326 2784 c-3 -9 -6 -31 -6 -50 0 -31 3 -34 29 -34 52 0 61 8 61 56 l0 44 -39 0 c-26 0 -41 -5 -45 -16z"></path><path id="pRvqg0XxW" d="M3150 2725 l0 -65 35 0 35 0 0 65 0 65 -35 0 -35 0 0 -65z"></path><path id="pQeiysNnG" d="M3963 2615 c-29 -19 -64 -37 -78 -41 -20 -5 -25 -12 -25 -39 0 -19 5 -37 10 -40 6 -3 10 -25 10 -48 0 -23 9 -84 20 -136 11 -52 20 -116 20 -143 0 -26 4 -48 8 -48 5 0 16 -42 25 -92 29 -159 33 -168 72 -168 37 0 85 18 85 32 0 4 8 8 18 8 29 0 43 147 46 461 l2 265 -38 12 c-67 21 -118 14 -175 -23z"></path><path id="pMg2Qf1Lw" d="M6850 2470 c0 -22 5 -40 10 -40 6 0 10 -13 10 -30 0 -25 -4 -30 -25 -30 -22 0 -25 -4 -25 -40 0 -39 1 -40 35 -40 32 0 35 2 35 30 0 25 4 30 24 30 35 0 39 12 31 91 l-7 69 -44 0 -44 0 0 -40z"></path><path id="pA9PX0lzt" d="M5777 2413 c-4 -3 -7 -14 -7 -23 0 -10 -13 -44 -30 -76 -17 -34 -30 -75 -30 -96 0 -36 2 -38 33 -38 31 0 35 4 70 79 24 51 37 95 37 120 0 40 -1 41 -33 41 -19 0 -37 -3 -40 -7z"></path><path id="pGcRBuHtT" d="M6503 2320 c-12 -22 -25 -30 -44 -30 -40 0 -59 -24 -59 -75 0 -48 9 -55 68 -55 42 0 56 -7 65 -32 10 -28 73 -24 88 5 7 12 30 43 51 68 31 37 38 53 38 87 0 52 -19 62 -120 62 -66 0 -70 -1 -87 -30z"></path><path id="p1dsFjIk2" d="M6801 2150 c-13 -11 -35 -20 -49 -20 -17 0 -38 -14 -64 -42 -30 -33 -38 -49 -38 -80 l0 -38 53 0 c67 0 114 14 144 42 18 17 34 21 63 19 63 -4 80 11 80 73 0 62 -6 66 -105 66 -45 -1 -66 -6 -84 -20z"></path><path id="pcCO88mYt" d="M5650 2115 c0 -33 2 -35 35 -35 33 0 35 2 35 35 0 33 -2 35 -35 35 -33 0 -35 -2 -35 -35z"></path><path id="pwbEPK9Zu" d="M4541 2036 c-6 -25 -11 -63 -11 -85 0 -41 -43 -140 -67 -154 -9 -6 -13 -34 -13 -102 l0 -95 35 0 c27 0 35 4 35 18 0 17 24 76 54 132 8 14 30 33 50 43 l36 19 0 114 c0 131 -11 154 -74 154 -31 0 -34 -3 -45 -44z"></path><path id="p1XyVPMHq" d="M6400 2033 c-36 -14 -102 -29 -147 -33 -85 -8 -132 -28 -175 -74 -16 -17 -19 -30 -15 -65 6 -57 27 -73 92 -69 45 3 50 6 53 28 8 54 22 59 156 53 87 -4 125 -3 130 6 4 6 16 11 27 11 11 0 31 7 44 16 20 13 25 25 25 60 0 32 -4 44 -15 44 -8 0 -22 11 -31 25 -21 32 -56 31 -144 -2z"></path><path id="p13qheBeYL" d="M3682 1894 c-17 -12 -22 -25 -22 -59 0 -24 5 -47 10 -50 6 -4 44 -3 85 0 l75 7 0 59 0 59 -63 0 c-40 0 -70 -5 -85 -16z"></path><path id="p18ESR7aQK" d="M5072 1850 c-14 -19 -22 -44 -22 -70 l0 -40 44 0 c36 0 50 6 85 38 32 29 41 45 41 70 l0 32 -63 0 c-58 0 -65 -2 -85 -30z"></path><path id="pd5fRnDTT" d="M4704 1846 c-3 -7 -4 -33 -2 -57 3 -44 3 -44 46 -47 l42 -3 0 60 0 61 -40 0 c-25 0 -43 -5 -46 -14z"></path><path id="pJjWlQaPF" d="M3595 1741 c-11 -5 -42 -10 -68 -10 -47 -1 -108 -25 -147 -59 -15 -12 -20 -29 -20 -64 0 -27 1 -49 3 -49 8 -4 300 -21 382 -22 l100 -2 3 71 c4 103 -5 120 -70 128 -105 13 -163 16 -183 7z"></path><path id="p13zSQMDD5" d="M6797 1713 c-4 -3 -7 -19 -7 -35 0 -48 -27 -78 -69 -78 -47 0 -61 -14 -61 -62 0 -22 -5 -38 -12 -38 -20 0 -178 82 -178 93 0 16 -97 0 -124 -20 -40 -29 -66 -85 -66 -141 0 -73 6 -82 51 -82 36 0 39 2 39 29 0 16 5 42 12 58 l11 28 7 -38 c4 -20 9 -39 12 -42 3 -3 32 -12 64 -21 118 -31 244 -4 252 56 3 18 8 21 30 16 75 -18 98 -17 143 3 53 24 59 36 59 128 0 42 -5 66 -15 77 -8 8 -15 19 -15 23 0 26 -43 53 -84 53 -23 0 -46 -3 -49 -7z"></path><path id="p1E7bZNPyO" d="M4707 1463 c-4 -3 -7 -35 -7 -69 0 -62 1 -64 37 -89 44 -29 107 -34 117 -9 18 47 -5 130 -45 158 -23 16 -90 22 -102 9z"></path><path id="pXeiuEIsJ" d="M7700 1368 c0 -63 9 -78 46 -78 32 0 34 2 34 33 0 62 -9 77 -46 77 -32 0 -34 -2 -34 -32z"></path><path id="pS1T5QvkD" d="M7466 1242 c-2 -4 -8 -64 -12 -132 -4 -68 -12 -133 -19 -144 -36 -66 -59 -96 -71 -96 -8 0 -17 -6 -20 -14 -8 -20 -45 -8 -71 23 -12 14 -22 29 -23 34 0 4 24 7 54 7 48 0 57 4 76 28 20 24 22 36 18 112 -5 107 -18 130 -73 130 -25 -1 -55 -10 -80 -25 -22 -14 -55 -25 -73 -25 -18 0 -42 -5 -54 -11 -23 -12 -48 -67 -48 -104 0 -26 0 -26 -62 -19 -35 4 -69 13 -76 21 -7 7 -31 13 -52 13 -42 0 -50 -13 -50 -82 0 -20 -4 -40 -10 -43 -15 -9 -12 -91 3 -123 8 -15 19 -49 26 -77 21 -86 34 -125 41 -125 4 0 10 -8 13 -19 4 -16 19 -19 124 -25 133 -8 174 1 244 56 21 16 49 28 66 28 15 0 45 12 66 26 l38 25 -6 -23 c-2 -13 -10 -54 -15 -93 -21 -138 -90 -365 -146 -479 -44 -90 -52 -86 176 -86 224 0 218 -3 175 71 -14 24 -25 54 -25 66 0 12 -9 27 -20 33 -28 15 -25 30 5 30 23 0 25 4 25 41 0 33 -4 42 -21 46 -19 5 -21 11 -16 62 3 31 11 76 17 101 22 85 32 225 26 365 -5 140 -19 205 -43 205 -10 0 -13 22 -13 84 0 45 -5 97 -11 115 -9 26 -16 31 -44 31 -19 0 -36 -4 -39 -8z"></path><path id="pqJU0rsIj" d="M4547 1203 c-12 -12 -7 -73 8 -103 14 -28 20 -30 68 -30 29 0 58 5 65 12 7 7 12 31 12 55 0 37 -4 44 -30 58 -29 15 -111 21 -123 8z"></path><path id="pMADXRVuP" d="M4800 1120 c-13 -27 -29 -50 -36 -50 -6 0 -25 -7 -40 -15 -18 -9 -57 -15 -101 -15 l-73 0 0 -33 c0 -46 58 -472 70 -516 5 -20 10 -71 10 -114 0 -91 23 -159 99 -292 l46 -80 384 -3 383 -2 -7 39 c-4 22 -15 57 -26 78 -10 20 -19 58 -19 83 0 37 -8 57 -48 116 -26 38 -72 101 -104 140 -67 83 -128 207 -128 262 0 52 -23 126 -52 165 -13 18 -30 46 -38 62 -20 41 -109 143 -130 150 -9 3 -26 21 -36 40 -18 34 -21 35 -75 35 l-56 0 -23 -50z"></path><path id="pkxvq1N66" d="M6253 923 c-51 -4 -53 -5 -53 -34 0 -26 -3 -29 -32 -29 -18 0 -51 -7 -74 -16 -41 -15 -48 -24 -68 -88 -4 -11 -12 -16 -22 -12 -9 3 -22 6 -30 6 -9 0 -14 11 -14 30 0 28 3 30 35 30 35 0 35 0 35 46 l0 47 -58 -6 c-31 -3 -81 -11 -110 -17 -50 -11 -52 -13 -52 -46 0 -32 -2 -34 -35 -34 -21 0 -36 -5 -36 -12 -1 -7 -4 3 -8 22 -5 31 -10 35 -40 38 -63 6 -81 -4 -81 -46 0 -50 14 -62 72 -62 42 0 48 -3 48 -20 0 -11 7 -23 15 -26 8 -4 15 -16 15 -29 0 -48 53 -63 262 -72 l128 -5 10 27 c10 26 10 26 34 8 l23 -18 -41 -20 c-23 -11 -43 -22 -46 -26 -15 -16 -91 -47 -130 -53 -33 -5 -51 -3 -65 8 -21 16 -115 22 -115 8 0 -5 -11 -14 -25 -20 -20 -9 -25 -19 -25 -51 0 -37 3 -40 53 -65 132 -66 222 -78 368 -50 46 9 133 16 194 17 101 2 115 5 169 32 33 17 62 37 66 45 4 8 12 25 18 37 7 13 12 44 12 70 0 39 -8 58 -39 103 -33 48 -43 55 -74 58 l-37 3 -1 67 c-1 96 -9 116 -44 120 -16 2 -40 12 -53 23 -25 19 -34 20 -149 12z"></path></g></g><g id="l5SXzW7gdmYfXvEIM6p5Bof" fill="rgb(101,98,102)" style="transform: none;"><g style="transform: none;"><path id="pLZ5hqBjH" d="M70 5613 c0 -5 17 -19 36 -33 20 -14 44 -32 53 -40 25 -21 51 -38 87 -54 17 -8 35 -19 38 -25 4 -6 26 -19 49 -29 23 -10 49 -25 57 -33 29 -28 70 -49 93 -49 14 0 42 -8 63 -17 31 -13 76 -17 229 -18 105 -1 208 3 230 8 35 7 92 16 214 31 107 14 140 19 176 31 22 7 78 23 125 35 47 12 138 40 203 61 64 22 124 39 132 39 9 0 37 10 63 23 26 13 66 29 90 37 23 7 47 19 53 27 21 24 -112 17 -173 -10 -29 -13 -80 -32 -113 -41 -33 -10 -78 -24 -100 -31 -83 -28 -213 -54 -300 -61 -49 -3 -94 -10 -100 -14 -5 -4 -94 -13 -197 -18 -141 -8 -203 -8 -250 1 -35 6 -89 11 -120 11 -42 0 -58 4 -58 13 0 8 -12 13 -32 13 -39 0 -133 46 -170 83 -15 15 -34 27 -41 27 -8 0 -26 9 -40 20 -22 18 -40 20 -161 20 -75 0 -136 -3 -136 -7z"></path><path id="puUjcuihX" d="M2070 5591 c-25 -15 -76 -40 -115 -55 -38 -15 -77 -33 -85 -40 -18 -14 -46 -28 -120 -57 -119 -46 -175 -71 -180 -79 -13 -21 -281 -99 -395 -115 -211 -29 -308 -46 -335 -59 -59 -30 -241 -76 -418 -107 -97 -16 -156 -20 -273 -17 l-149 3 0 -33 c0 -25 5 -35 25 -42 14 -5 25 -17 25 -26 0 -22 41 -64 63 -64 18 0 20 -5 17 -62 -1 -33 2 -39 43 -63 25 -14 76 -32 114 -40 l68 -13 -72 -1 -73 -1 0 -35 c0 -34 1 -35 40 -35 27 0 40 -4 40 -13 0 -22 31 -44 80 -58 70 -19 84 -37 81 -108 -1 -38 2 -61 8 -61 6 0 11 -6 11 -14 0 -17 22 -26 61 -26 23 0 29 -4 29 -22 0 -39 12 -68 26 -68 9 0 14 -12 14 -35 0 -29 6 -38 44 -65 37 -25 54 -30 102 -30 59 0 85 -16 99 -61 4 -11 15 -19 25 -19 17 0 18 -6 13 -70 l-6 -70 32 0 c39 0 66 -21 48 -39 -6 -6 -17 -11 -24 -11 -9 0 -13 -15 -13 -45 0 -45 0 -45 34 -45 33 0 35 -2 38 -37 2 -32 7 -39 28 -41 14 -2 37 -16 53 -30 27 -25 27 -29 21 -99 -7 -71 -6 -72 20 -84 14 -7 26 -18 26 -26 0 -7 7 -13 15 -13 8 0 15 -8 15 -18 0 -29 29 -62 54 -62 23 0 72 -46 106 -100 8 -13 25 -34 38 -47 12 -13 22 -30 22 -37 0 -7 16 -24 35 -37 24 -16 35 -32 35 -49 1 -34 30 -66 79 -86 34 -13 41 -21 41 -43 0 -40 18 -51 82 -51 l58 0 0 -35 c0 -19 4 -35 8 -35 5 0 19 -20 31 -45 12 -25 29 -45 37 -45 8 0 14 -9 14 -20 0 -13 7 -20 20 -20 13 0 20 -7 20 -20 0 -18 7 -20 55 -20 52 0 55 -1 55 -25 0 -16 6 -25 15 -25 10 0 15 -10 15 -34 l0 -34 75 -7 c55 -5 75 -11 75 -21 0 -10 14 -14 53 -14 45 0 53 -3 63 -24 15 -32 5 -36 -113 -43 l-93 -6 0 -32 c0 -51 48 -75 150 -75 44 0 100 -6 126 -12 40 -11 52 -10 105 8 57 20 59 20 59 3 0 -16 8 -19 55 -19 54 0 55 0 55 -30 0 -19 7 -33 19 -40 25 -13 98 -13 106 0 4 7 82 8 228 4 l222 -7 34 28 c29 25 40 28 87 26 30 -1 54 1 54 6 0 9 83 53 101 53 5 0 30 20 56 45 38 38 51 45 84 45 48 0 93 18 135 53 18 15 36 27 40 27 5 0 10 -62 12 -138 2 -75 7 -189 12 -252 6 -96 5 -123 -8 -163 -21 -58 -35 -60 -111 -10 -49 31 -81 58 -210 168 -13 11 -49 46 -81 78 -69 68 -102 74 -169 30 -37 -24 -41 -30 -41 -69 0 -38 4 -45 48 -78 26 -21 57 -49 68 -64 46 -64 159 -165 251 -226 26 -17 47 -35 47 -41 1 -5 -21 -13 -49 -17 -27 -3 -80 -20 -117 -37 -45 -21 -83 -31 -114 -31 -38 0 -51 -5 -70 -27 -28 -33 -24 -33 -419 8 -60 6 -138 9 -172 6 -35 -3 -66 0 -72 6 -17 17 -432 37 -556 26 -106 -9 -370 -23 -639 -34 -71 -3 -133 -8 -138 -11 -15 -9 -9 -71 8 -78 9 -3 183 -6 387 -6 409 0 1022 -14 1357 -30 118 -6 319 -16 445 -21 313 -15 434 -24 470 -36 17 -6 82 -13 145 -17 123 -8 177 4 201 42 9 14 23 16 77 14 37 -2 94 3 127 11 l60 13 18 60 c21 69 55 140 74 155 20 18 63 1 81 -31 15 -26 23 -30 59 -30 42 0 42 0 58 52 18 62 19 100 3 116 -16 16 -105 16 -110 0 -3 -7 -10 -8 -17 -4 -9 6 -11 22 -6 56 4 26 2 66 -4 88 -13 47 -61 92 -97 92 -19 0 -24 5 -24 25 0 14 -23 59 -50 100 -49 72 -52 75 -91 75 -40 0 -40 -1 -70 -65 -17 -36 -35 -65 -40 -65 -21 0 -29 60 -36 244 -5 169 -4 193 10 199 16 6 29 -18 43 -75 5 -25 11 -28 44 -28 36 0 39 2 43 33 l4 32 1 -37 c2 -32 7 -39 49 -63 45 -27 50 -28 148 -22 60 4 115 2 136 -4 35 -10 363 -20 412 -11 15 2 27 11 27 18 0 8 8 14 18 14 9 0 26 7 36 15 11 8 28 15 38 15 15 0 18 8 18 48 0 96 -194 440 -249 443 -23 1 47 25 95 33 36 6 45 4 80 -25 50 -42 131 -136 202 -236 54 -76 172 -295 172 -320 0 -19 -56 -183 -84 -248 -14 -31 -26 -75 -26 -96 0 -38 1 -39 33 -39 32 0 36 4 74 78 22 42 52 118 67 167 15 50 38 119 51 155 21 59 29 87 65 218 15 56 74 120 142 156 29 15 65 36 79 47 14 11 45 23 69 26 32 5 51 14 68 35 13 15 31 28 41 28 9 0 26 7 38 15 19 13 62 27 178 57 71 19 224 21 269 5 23 -8 55 -18 73 -21 31 -5 136 -66 148 -86 11 -18 -13 -11 -42 13 -15 13 -48 29 -73 36 -25 7 -58 17 -74 22 -49 15 -295 11 -360 -6 -57 -15 -183 -83 -207 -111 -6 -8 -17 -14 -23 -14 -18 0 -184 -166 -202 -203 -9 -17 -22 -39 -28 -47 -7 -8 -41 -80 -76 -160 -75 -172 -136 -299 -154 -320 -8 -8 -21 -32 -31 -53 -15 -33 -95 -121 -157 -175 -11 -10 -18 -30 -18 -54 l0 -38 50 0 c28 0 50 5 50 10 0 6 6 10 13 10 6 0 26 13 44 28 53 45 209 262 232 322 65 170 87 224 117 280 41 77 50 88 89 116 62 43 75 46 197 45 66 -1 144 3 172 10 44 9 54 16 63 40 13 34 38 38 53 9 9 -16 21 -20 65 -20 30 0 64 4 77 9 13 5 45 14 73 20 27 7 57 18 65 26 14 12 22 6 70 -47 30 -34 69 -89 85 -122 19 -39 37 -62 50 -65 11 -2 22 -6 25 -10 3 -4 26 -18 53 -30 26 -13 47 -27 47 -32 0 -5 14 -9 31 -9 24 0 42 -11 76 -45 35 -36 50 -45 78 -45 35 0 35 0 35 46 0 26 -12 90 -26 143 -21 78 -33 103 -62 134 -36 37 -27 53 14 22 21 -16 94 -20 94 -5 0 6 18 10 40 10 44 0 54 17 48 81 -3 36 -5 37 -113 83 -67 28 -78 46 -90 159 -5 40 -11 57 -21 57 -15 0 -14 8 7 90 12 47 11 107 -1 115 -5 3 -10 15 -10 25 0 14 10 20 41 25 47 8 53 4 67 -45 6 -19 24 -73 40 -120 16 -47 40 -120 53 -162 20 -67 27 -78 46 -78 17 0 23 -6 23 -22 0 -56 11 -69 49 -66 l36 3 0 60 0 60 -33 3 c-31 3 -32 4 -17 25 8 12 15 42 16 67 0 46 29 133 45 136 68 14 203 64 298 110 16 8 37 14 47 14 10 0 20 4 23 8 6 10 197 9 214 -2 8 -4 62 -5 122 -1 93 6 111 5 134 -10 24 -16 43 -17 169 -11 86 4 154 12 172 21 80 37 142 55 186 55 27 0 49 4 49 8 0 5 19 14 43 21 36 11 68 24 99 39 5 2 8 -6 8 -19 0 -21 3 -22 64 -16 125 12 204 81 285 250 28 57 51 112 51 122 0 25 19 55 36 55 8 0 17 7 20 15 4 10 20 15 52 15 59 0 83 27 152 166 47 95 54 104 80 104 19 0 41 13 69 40 l41 40 0 705 0 705 -60 0 c-57 0 -60 -1 -60 -24 0 -20 -16 -36 -36 -36 -2 0 -4 14 -4 30 0 17 -4 30 -9 30 -5 0 -6 -20 -4 -44 5 -37 2 -45 -13 -49 -17 -4 -17 -5 -1 -6 10 -1 17 -9 17 -21 0 -16 -7 -20 -30 -20 l-30 0 0 -60 c0 -41 -7 -74 -20 -100 -11 -22 -20 -55 -20 -74 0 -45 -9 -66 -27 -66 -17 0 -43 -24 -43 -40 0 -7 -11 -21 -24 -31 -17 -13 -22 -25 -19 -44 3 -14 12 -25 19 -25 8 0 14 -7 14 -15 0 -8 -4 -15 -8 -15 -16 0 -42 36 -42 57 0 12 -6 23 -13 26 -24 9 -37 115 -37 301 0 100 -3 191 -6 204 l-6 22 -475 0 c-385 0 -478 -3 -496 -14 -12 -7 -62 -23 -110 -36 -109 -27 -168 -21 -227 21 -32 23 -50 29 -92 29 -47 0 -57 -4 -90 -36 -42 -39 -142 -98 -203 -120 -22 -8 -67 -17 -100 -20 -33 -4 -65 -11 -72 -16 -7 -5 -14 -5 -18 2 -3 5 -36 10 -73 10 -78 1 -158 29 -221 79 -48 38 -103 41 -109 6 -2 -11 -8 -37 -13 -58 -9 -34 -13 -38 -37 -35 l-27 3 3 93 3 92 -176 0 -175 0 -47 -34 c-54 -38 -163 -100 -163 -93 0 3 22 22 50 43 34 26 50 45 50 61 l0 23 -341 0 -342 0 7 -56 c13 -112 99 -228 209 -282 38 -19 80 -32 103 -32 l39 -1 -24 -19 c-31 -27 -43 -25 -111 11 -83 44 -184 131 -215 184 -22 37 -42 119 -45 188 0 4 -142 7 -316 7 l-317 0 6 -67 c7 -83 47 -199 95 -270 19 -29 38 -53 41 -53 3 0 24 -16 46 -35 53 -46 131 -70 228 -69 86 0 94 -10 32 -40 -35 -16 -47 -17 -106 -7 -77 12 -143 39 -206 81 -30 21 -56 30 -84 30 l-39 0 0 -62 c0 -73 -6 -85 -40 -89 l-25 -4 -6 270 c-4 149 -7 280 -8 293 l-1 22 -256 0 -257 0 7 -107 c6 -108 33 -337 41 -360 3 -10 39 -13 133 -13 103 0 132 -3 142 -15 7 -8 10 -21 7 -30 -5 -11 -33 -15 -139 -17 l-133 -3 -3 -77 c-4 -103 9 -146 63 -206 70 -77 121 -95 285 -100 74 -2 138 -7 142 -10 4 -4 3 -14 -2 -22 -7 -12 -35 -15 -142 -15 -133 0 -133 0 -209 37 -130 63 -197 159 -218 310 -4 33 -14 64 -22 69 -8 5 -49 9 -92 9 -76 0 -78 1 -75 23 3 20 10 22 78 27 41 3 81 9 88 13 7 5 12 31 12 65 0 66 -28 379 -36 405 -5 16 -50 17 -765 17 l-760 0 6 -22 c34 -129 44 -158 60 -178 7 -8 17 -40 23 -70 6 -30 18 -81 27 -114 9 -32 14 -65 11 -73 -3 -7 1 -16 9 -19 8 -4 15 -15 15 -25 0 -10 4 -19 9 -19 12 0 48 -138 63 -245 6 -49 15 -92 19 -95 9 -6 13 -41 11 -87 -3 -61 -64 -25 -77 45 -8 44 -33 66 -52 46 -10 -10 -11 -28 -3 -85 6 -40 8 -74 6 -77 -3 -2 1 -11 9 -19 10 -9 15 -36 16 -71 0 -31 7 -95 15 -142 8 -47 20 -116 26 -155 7 -41 10 -132 8 -220 -6 -248 -5 -394 4 -517 l8 -118 -31 0 c-31 0 -44 23 -18 33 10 4 10 6 0 6 -15 1 -18 41 -3 41 6 0 10 9 10 20 0 12 -7 20 -16 20 -17 0 -16 22 1 63 5 13 2 17 -13 17 -24 0 -32 33 -32 129 0 41 -5 74 -14 86 -9 13 -11 28 -5 48 6 22 1 228 -10 422 -1 11 -1 39 -1 62 1 23 -7 54 -16 68 -9 14 -13 25 -9 25 3 0 -3 13 -14 29 -17 23 -22 48 -24 118 -2 48 -9 104 -15 123 -6 19 -14 56 -17 83 -4 30 -10 45 -17 41 -6 -4 -8 -2 -5 3 7 12 3 46 -38 273 -14 80 -28 159 -31 177 -4 18 -12 38 -20 44 -8 7 -14 30 -14 56 0 25 -6 59 -14 76 -8 18 -17 52 -20 77 -17 124 -15 120 -53 120 -30 0 -34 -3 -28 -17 13 -31 55 -207 55 -231 0 -13 4 -31 9 -41 6 -10 15 -132 21 -272 10 -246 25 -365 65 -534 9 -38 23 -112 31 -164 8 -51 17 -99 21 -105 4 -6 8 -47 9 -91 5 -286 6 -397 1 -401 -3 -3 -10 11 -17 30 -12 39 -30 48 -30 17 0 -11 -4 -23 -10 -26 -5 -3 -10 -14 -10 -23 0 -15 -34 -136 -65 -227 -19 -59 -112 -323 -131 -375 -18 -49 -59 -161 -93 -255 -49 -136 -109 -239 -166 -287 -36 -29 -28 -1 31 109 76 145 91 174 107 219 54 148 115 320 158 442 27 79 54 153 61 165 10 19 34 121 52 217 3 14 10 45 15 70 6 25 15 67 20 93 6 27 17 68 25 91 28 81 21 204 -10 192 -7 -3 -21 2 -30 11 -14 14 -15 32 -9 127 7 96 6 108 -7 95 -8 -8 -18 -39 -21 -68 -5 -42 -14 -62 -37 -86 -16 -17 -30 -37 -30 -43 0 -7 -7 -23 -15 -35 -8 -13 -24 -52 -36 -88 -11 -35 -27 -71 -34 -79 -19 -23 -93 -192 -106 -244 -13 -52 -86 -201 -144 -295 -22 -36 -70 -96 -107 -133 -38 -38 -68 -73 -68 -78 0 -15 -28 -12 -32 2 -5 14 50 107 87 148 12 14 31 40 41 59 10 19 27 43 37 53 9 10 17 23 17 30 0 6 11 25 24 43 13 17 40 63 61 103 20 39 40 74 46 77 5 4 9 16 9 27 0 12 14 50 30 85 17 34 30 72 30 84 0 11 7 33 15 50 9 16 18 66 21 112 7 103 10 122 29 140 8 8 20 48 26 89 7 40 15 75 19 78 20 15 26 45 18 93 -5 29 -13 90 -18 137 -5 47 -12 104 -15 127 -6 32 -3 49 9 68 13 20 15 40 10 109 -6 68 -3 93 11 128 18 44 24 173 11 215 -6 20 -9 20 -57 8 -27 -7 -80 -29 -117 -48 -76 -39 -122 -52 -153 -42 -21 7 -20 8 9 21 21 8 32 20 32 33 0 13 12 27 33 37 17 9 46 29 64 43 17 14 43 34 57 44 29 20 50 56 60 102 6 27 5 28 -7 13 -8 -10 -22 -18 -31 -18 -10 0 -46 -16 -80 -35 -72 -40 -86 -43 -86 -16 0 11 12 23 30 31 17 7 38 26 46 41 8 17 23 29 34 29 11 0 20 5 20 10 0 6 -117 10 -332 9 l-333 -1 -45 -27z m570 -111 c0 -5 -10 -10 -22 -10 -19 0 -20 2 -8 10 19 13 30 13 30 0z m200 -325 c0 -18 -5 -25 -20 -25 -15 0 -20 7 -20 25 0 18 5 25 20 25 15 0 20 -7 20 -25z m5890 -5 c0 -6 -7 -25 -16 -41 -8 -17 -26 -63 -39 -102 -13 -40 -35 -98 -49 -130 -14 -32 -26 -63 -26 -70 0 -39 -158 -327 -180 -327 -4 0 -27 -16 -50 -35 -65 -54 -61 -41 7 24 33 33 64 69 68 80 3 12 11 21 16 21 5 0 9 5 9 10 0 6 9 30 20 53 31 64 129 310 160 405 27 78 52 122 72 122 4 0 8 -5 8 -10z m-850 -239 c-10 -36 -25 -70 -113 -251 -67 -137 -71 -149 -71 -216 -1 -112 28 -134 189 -144 l100 -6 -120 -2 c-105 -1 -123 1 -145 18 -15 12 -41 20 -65 20 -35 0 -43 -5 -63 -35 -15 -24 -30 -35 -47 -35 -22 0 -24 3 -18 33 3 17 9 37 13 42 4 6 11 30 15 55 9 56 20 70 54 70 20 0 29 8 40 33 8 17 38 86 66 152 29 66 65 154 81 195 21 53 36 78 54 87 36 18 40 16 30 -16z m-645 -55 c50 -13 118 -30 152 -36 65 -13 113 -50 128 -97 12 -41 -31 -29 -60 16 -21 35 -30 40 -72 46 -26 3 -79 14 -118 25 -113 31 -213 43 -320 38 -84 -4 -112 -10 -178 -38 -131 -54 -232 -177 -225 -272 l3 -41 90 -35 c62 -24 113 -36 163 -40 62 -4 71 -7 60 -19 -18 -22 -98 -12 -180 21 -48 19 -81 26 -115 24 -46 -3 -47 -4 -56 -43 -13 -61 -4 -185 16 -224 20 -39 20 -41 8 -41 -5 0 -19 20 -30 43 -16 33 -23 72 -27 153 -6 95 -4 117 15 173 43 130 137 258 221 301 35 17 181 65 230 74 55 10 208 -4 295 -28z m2336 -48 c-6 -36 -11 -80 -11 -98 0 -18 -3 -30 -6 -27 -8 8 -5 172 3 194 4 9 9 11 15 5 7 -7 6 -32 -1 -74z m-6841 58 c-8 -7 -30 -16 -49 -20 -28 -5 -32 -4 -21 8 6 8 24 17 38 19 15 2 31 5 37 6 5 0 3 -5 -5 -13z m6932 -89 c-9 -19 -20 10 -14 38 l6 30 6 -30 c4 -16 4 -34 2 -38z m-3332 -49 c31 -43 37 -58 21 -58 -9 0 -71 84 -71 96 0 16 24 -2 50 -38z m-196 -83 c-5 -11 -23 -15 -74 -15 -37 0 -83 -3 -101 -6 -30 -5 -32 -4 -14 7 17 11 95 24 167 28 21 1 26 -3 22 -14z m1336 -111 c0 -24 -70 -121 -113 -157 -50 -42 -155 -107 -173 -107 -5 0 14 13 41 29 68 39 140 104 155 140 7 17 10 46 8 66 l-4 35 43 0 c24 0 43 -3 43 -6z m-1100 -56 c0 -27 -59 -134 -88 -162 l-30 -28 24 48 c14 28 24 65 24 91 0 40 -2 43 -27 44 l-28 1 25 8 c41 13 100 12 100 -2z m-1010 -30 c57 -13 104 -52 126 -104 29 -69 14 -102 -72 -164 l-49 -34 33 37 c29 34 32 44 32 101 0 84 -20 110 -95 126 -106 22 -380 -7 -461 -48 -110 -57 -148 -103 -168 -202 -10 -50 -14 -55 -40 -58 -28 -4 -28 -3 -21 40 10 61 47 129 92 168 47 42 181 105 253 119 30 6 75 15 100 20 66 13 211 13 270 -1z m316 -238 c30 0 24 -16 -8 -23 -13 -2 -30 -8 -40 -11 -15 -7 -15 -4 0 39 15 40 17 43 20 21 3 -20 9 -26 28 -26z m1444 33 c-53 -23 -139 -42 -190 -42 -35 1 -27 4 40 14 47 8 103 21 125 29 52 19 70 19 25 -1z m-1272 0 c-10 -2 -26 -2 -35 0 -10 3 -2 5 17 5 19 0 27 -2 18 -5z m-203 -248 l30 -24 -32 -1 c-22 0 -37 8 -52 26 -25 32 -26 43 -3 110 l17 53 5 -69 c4 -63 8 -73 35 -95z m-449 46 c-3 -5 -36 -14 -72 -21 -37 -6 -85 -21 -107 -33 -22 -12 -54 -30 -71 -39 -17 -9 -53 -20 -79 -24 -60 -8 -107 -52 -107 -99 0 -37 9 -52 35 -56 14 -3 21 -14 23 -38 3 -31 2 -33 -20 -27 -13 4 -47 10 -75 13 -54 6 -63 15 -40 42 18 21 47 96 47 121 0 13 7 20 20 20 13 0 20 7 20 19 0 20 4 21 123 40 32 5 88 24 124 41 74 36 192 63 179 41z m224 -88 c-1 -13 -44 -60 -61 -66 -14 -4 -13 1 5 34 12 22 28 39 39 39 9 0 17 -3 17 -7z m-2251 -338 c0 -55 -2 -75 -9 -65 -5 8 -9 56 -9 105 1 112 17 77 18 -40z m3257 -64 c38 -10 81 -25 96 -33 26 -14 15 -15 -142 -22 -247 -9 -489 -61 -672 -142 -152 -68 -208 -95 -214 -105 -3 -5 -12 -9 -21 -9 -13 0 -13 3 -3 15 7 8 18 15 26 15 7 0 19 6 26 13 18 17 170 87 189 87 8 0 19 4 25 9 5 5 45 21 89 36 44 15 108 41 141 56 34 16 66 29 72 29 5 0 21 9 35 21 65 50 227 64 353 30z m479 -55 c25 -9 44 -11 50 -5 13 12 69 11 82 -2 6 -6 43 -13 84 -15 98 -6 120 -25 79 -69 -16 -17 -20 -39 -24 -126 -3 -82 -10 -122 -31 -180 -15 -41 -32 -96 -37 -124 -6 -27 -15 -61 -21 -74 -9 -19 -8 -25 6 -36 9 -7 17 -17 17 -23 0 -6 11 -19 23 -29 31 -24 50 -60 40 -76 -4 -6 -6 -21 -5 -33 4 -28 67 -155 74 -148 3 3 18 -30 32 -72 14 -43 23 -80 21 -83 -17 -16 -114 143 -140 229 -13 44 -42 104 -94 194 -28 48 -51 92 -51 97 0 19 -170 179 -191 179 -11 0 -29 5 -40 11 -43 23 -283 35 -366 19 -62 -13 -61 -13 -137 -25 -27 -4 -61 -14 -75 -21 -14 -8 -31 -14 -36 -14 -14 0 -156 -60 -248 -105 -83 -39 -152 -105 -191 -180 -16 -32 -33 -93 -45 -169 -12 -66 -25 -124 -29 -128 -6 -6 -39 49 -80 130 -39 77 -94 174 -124 216 -29 43 -57 85 -63 94 -23 38 -150 153 -191 173 -47 22 -63 22 -147 -2 -41 -11 -49 -11 -62 2 -9 9 -13 23 -9 32 8 23 124 87 156 87 13 0 33 7 44 15 27 21 55 18 105 -9 24 -13 62 -29 84 -36 22 -7 46 -17 53 -23 9 -7 25 -6 51 3 45 14 76 10 76 -10 1 -51 37 -81 73 -61 10 5 29 9 41 8 18 -1 22 -7 19 -32 -3 -26 0 -30 22 -30 15 0 25 6 26 15 1 25 15 50 29 50 8 0 10 9 7 25 -4 25 -22 35 -22 13 0 -7 -10 -14 -22 -14 -13 -1 -34 -5 -48 -9 l-25 -7 25 18 c14 10 29 18 34 16 4 -2 5 13 2 33 -5 23 -3 35 4 35 7 0 9 9 5 23 -5 17 -4 19 4 7 7 -10 11 -11 11 -2 0 6 7 12 15 12 21 0 19 18 -2 22 -26 5 151 87 236 110 178 46 260 58 415 58 105 0 166 -5 200 -15 27 -8 75 -15 108 -15 63 0 64 2 58 77 -1 22 2 23 52 18 29 -2 71 -11 93 -19z m605 -44 c0 -16 -7 -44 -16 -61 -10 -21 -14 -45 -11 -67 5 -30 2 -36 -16 -43 -12 -5 -30 -5 -40 1 -9 5 -25 8 -35 6 -14 -3 -17 5 -17 47 0 42 -3 52 -22 60 -16 7 -23 18 -23 37 0 26 3 28 39 28 22 0 43 5 46 10 3 6 26 10 51 10 42 0 44 -1 44 -28z m-4333 -534 c-1 -40 -3 -10 -3 67 0 77 1 110 3 73 2 -37 2 -100 0 -140z m3452 61 c35 -5 88 -21 116 -34 52 -25 165 -123 165 -144 0 -5 12 -23 28 -39 26 -28 59 -68 101 -123 11 -15 18 -29 14 -32 -10 -11 -59 21 -71 47 -6 14 -15 26 -20 26 -5 0 -24 21 -42 47 -50 69 -108 125 -161 154 l-46 26 -38 -23 c-21 -12 -57 -26 -79 -30 -33 -5 -43 -3 -57 15 -21 25 -64 28 -79 4 -8 -13 -13 -14 -16 -5 -3 6 -19 12 -36 12 -16 0 -37 7 -45 16 -11 10 -18 12 -22 5 -4 -6 -42 -20 -86 -31 -43 -11 -86 -27 -95 -35 -9 -8 -20 -15 -24 -15 -4 0 -22 -10 -38 -22 l-30 -21 11 21 c7 12 17 22 24 22 7 0 28 15 47 32 19 18 43 37 52 43 9 5 37 22 62 38 87 53 220 70 365 46z m-1572 -63 c42 -48 108 -170 99 -184 -3 -5 -30 -12 -60 -14 -30 -3 -67 -13 -83 -24 l-28 -19 48 -3 c88 -6 62 -18 -118 -55 -27 -5 -141 -12 -253 -14 l-204 -4 7 23 c4 13 17 46 31 74 13 28 24 58 24 67 0 10 16 35 36 57 31 34 40 38 66 33 30 -6 31 -5 24 22 -6 22 -2 33 20 56 l28 29 162 0 162 0 39 -44z m-563 7 c-9 -35 -64 -95 -81 -88 -8 2 -11 1 -8 -4 3 -5 1 -12 -5 -16 -26 -16 -6 27 24 52 18 15 41 40 51 56 22 34 27 34 19 0z m2459 -43 c3 -11 2 -20 -3 -20 -4 0 -10 11 -12 25 -6 29 7 25 15 -5z m424 -125 c0 -8 -6 -16 -14 -19 -15 -6 -15 -4 -7 18 8 20 21 21 21 1z m-4190 -47 c-2 -13 -4 -5 -4 17 -1 22 1 32 4 23 2 -10 2 -28 0 -40z m1223 -6 c0 -14 -39 -46 -47 -39 -3 4 2 16 12 27 19 21 35 26 35 12z m-252 -39 c-10 -2 -26 -2 -35 0 -10 3 -2 5 17 5 19 0 27 -2 18 -5z m-47 -55 c38 -12 40 -15 34 -43 -3 -16 -5 -86 -4 -155 4 -180 0 -272 -13 -382 -10 -84 -14 -98 -30 -98 -10 0 -18 -4 -18 -8 0 -8 -43 -32 -55 -32 -5 0 -23 64 -30 106 -16 99 -31 165 -35 161 -3 -3 -6 15 -7 40 -1 25 -11 89 -23 143 -11 55 -20 116 -20 137 0 22 -5 44 -11 50 -7 7 -3 12 16 17 14 4 49 22 78 41 59 39 63 39 118 23z m1685 -292 c-30 -68 -41 -74 -16 -8 11 26 22 56 26 67 3 11 8 15 11 9 2 -6 -7 -37 -21 -68z m-1176 -297 c6 -10 10 -54 10 -98 l0 -81 -33 -14 c-36 -15 -57 -41 -78 -99 -22 -62 -39 -68 -39 -14 0 28 5 49 13 54 24 14 67 113 67 154 0 63 19 129 36 122 8 -3 19 -14 24 -24z m-110 -73 c0 -42 -39 -116 -60 -116 -26 0 -26 1 11 81 31 68 49 80 49 35z m-710 -96 c0 -27 -3 -30 -34 -30 -19 0 -41 -3 -50 -6 -10 -4 -18 1 -23 12 -9 24 31 54 73 54 31 0 34 -3 34 -30z m960 -50 c0 -16 -5 -30 -10 -30 -14 0 -24 26 -16 45 10 26 26 16 26 -15z m-1012 -97 c61 -7 75 -26 70 -97 l-3 -41 -70 2 c-64 1 -349 19 -351 22 -5 7 6 42 17 54 30 30 99 57 146 58 26 0 57 4 68 9 11 5 31 7 45 5 14 -3 49 -8 78 -12z m545 -23 l42 -1 -39 -14 c-46 -16 -56 -13 -55 18 0 12 3 16 6 10 2 -8 23 -13 46 -13z"></path><path id="pE8nBzpnE" d="M4966 2914 c-9 -22 11 -54 34 -54 21 0 24 10 14 48 -7 25 -39 30 -48 6z"></path><path id="pG7lAMjc9" d="M7380 5597 c0 -51 93 -94 237 -108 80 -8 101 -7 169 11 42 12 101 32 131 46 43 21 53 30 53 50 l0 24 -295 0 -295 0 0 -23z"></path><path id="pFEg3CtmM" d="M9120 2605 c0 -33 2 -35 35 -35 33 0 35 2 35 35 0 33 -2 35 -35 35 -33 0 -35 -2 -35 -35z"></path><path id="pbAQzX0tv" d="M6783 2521 c-18 -15 -23 -30 -23 -70 l0 -51 -45 0 c-44 0 -45 1 -45 31 l0 31 -77 -4 c-92 -5 -183 -28 -183 -45 0 -7 -4 -13 -10 -13 -5 0 -10 -22 -10 -48 0 -47 -20 -105 -42 -118 -11 -7 -1 -142 12 -159 5 -6 -9 -9 -40 -7 -39 3 -58 -2 -97 -24 -26 -16 -54 -34 -61 -41 -18 -18 -67 -16 -82 3 -20 23 -77 44 -122 44 l-40 0 4 -54 c4 -44 10 -59 40 -90 19 -19 40 -55 47 -78 16 -51 61 -98 95 -98 13 0 31 -7 40 -15 8 -8 30 -15 48 -15 43 0 59 25 65 102 3 32 10 58 15 58 5 0 48 -9 95 -21 119 -29 217 -24 247 13 20 25 25 26 92 21 l72 -6 46 47 c25 26 46 54 46 63 0 11 5 13 18 7 62 -27 154 -5 166 40 12 44 5 93 -19 136 -13 25 -27 53 -31 62 -3 9 -13 19 -23 21 -9 3 -6 5 10 6 37 2 49 19 49 71 0 46 -1 47 -40 59 -36 11 -39 14 -30 32 6 11 10 38 8 61 -3 42 -3 42 -58 54 -76 18 -111 17 -137 -5z m47 -130 c0 -5 -7 -11 -15 -15 -18 -7 -20 -67 -3 -84 7 -7 26 -12 43 -13 29 0 29 -1 8 -11 -16 -8 -23 -20 -23 -40 0 -15 -4 -28 -9 -28 -6 0 -22 -11 -37 -25 -15 -14 -35 -25 -44 -25 -10 0 -47 -32 -82 -71 -55 -61 -66 -69 -86 -62 l-23 9 33 44 c18 25 40 55 48 66 8 12 41 55 73 96 51 66 57 80 57 121 0 46 1 47 30 47 17 0 30 -4 30 -9z m-172 -82 c31 -12 28 -25 -20 -84 -24 -29 -48 -61 -55 -71 -11 -18 -11 -18 -19 1 -11 28 -23 35 -66 35 -20 0 -43 3 -52 6 -36 14 -3 64 43 64 19 0 32 8 45 30 15 27 22 30 59 29 23 -1 52 -6 65 -10z m280 -175 c15 -4 22 -14 22 -30 0 -33 -29 -46 -68 -32 -29 11 -34 10 -65 -20 -33 -32 -81 -52 -124 -52 -32 0 -29 10 15 58 26 28 47 42 64 42 14 0 36 9 49 20 24 19 65 25 107 14z m-393 -154 c7 0 12 -7 11 -15 -3 -21 -36 -44 -63 -45 -12 0 -25 -5 -29 -11 -4 -8 -42 -9 -126 -4 -106 6 -121 5 -138 -10 -11 -10 -20 -29 -20 -42 0 -29 -23 -39 -54 -25 -81 37 16 131 142 137 41 3 98 15 147 33 l80 28 18 -23 c10 -13 25 -23 32 -23z"></path><path id="p7LgTTdk9" d="M5062 1864 c-28 -24 -32 -33 -32 -78 0 -29 5 -57 12 -64 26 -26 107 -3 156 45 8 8 27 20 43 28 23 13 29 22 29 49 0 42 -10 46 -104 46 -63 0 -76 -3 -104 -26z m89 -54 c-64 -58 -95 -52 -49 10 17 24 30 30 57 30 l36 0 -44 -40z"></path><path id="pW1Uvwph2" d="M6802 1755 c-17 -20 -32 -62 -32 -91 0 -28 -31 -44 -87 -44 -33 0 -93 -33 -116 -64 -7 -10 -18 -1 -69 63 -22 26 -72 27 -113 0 -16 -10 -39 -23 -50 -28 -11 -5 -36 -28 -54 -52 -19 -24 -41 -48 -48 -52 -20 -12 -16 -78 7 -115 11 -18 20 -39 20 -48 0 -8 7 -22 15 -30 8 -9 15 -24 15 -34 0 -34 45 -58 124 -65 92 -9 116 2 116 50 0 22 -5 35 -13 35 -18 0 -72 58 -64 67 4 4 29 -1 55 -10 69 -25 141 -22 193 8 33 19 59 25 104 25 41 0 72 6 98 20 l37 20 0 -20 c0 -17 7 -20 43 -21 23 -1 34 -3 25 -6 -10 -2 -21 -15 -24 -28 -3 -14 -15 -25 -27 -27 -31 -4 -38 -77 -9 -85 25 -6 18 -44 -14 -74 -17 -16 -24 -33 -24 -61 0 -36 -1 -38 -33 -38 -26 0 -36 -6 -45 -24 -8 -17 -21 -25 -49 -28 -47 -6 -57 1 -86 63 -17 38 -27 49 -44 49 -16 0 -23 6 -23 19 0 15 -11 22 -50 30 -88 19 -100 16 -100 -23 0 -30 4 -36 40 -50 22 -9 47 -16 55 -16 8 0 15 -9 15 -20 0 -11 11 -38 25 -59 13 -22 27 -51 31 -65 3 -14 12 -26 20 -26 8 0 14 -9 14 -20 0 -16 7 -20 35 -20 30 0 35 3 35 24 0 16 7 27 21 31 11 4 22 5 25 3 2 -2 7 -83 10 -178 7 -160 9 -176 28 -192 12 -9 27 -17 34 -18 7 0 20 -7 28 -15 34 -34 246 -10 344 39 36 18 78 36 94 40 16 4 41 16 54 27 14 10 27 17 29 15 8 -8 -27 -170 -57 -261 -33 -106 -50 -145 -61 -145 -5 0 -11 -16 -15 -35 -3 -20 -16 -40 -30 -50 -14 -9 -24 -25 -24 -39 0 -13 -7 -29 -15 -36 -8 -7 -15 -25 -15 -41 0 -27 3 -29 39 -29 37 0 40 3 64 53 91 189 170 517 166 685 -1 39 -5 72 -8 72 -3 0 -14 -21 -25 -46 -22 -54 -84 -104 -129 -104 -17 0 -44 -12 -66 -28 -47 -37 -107 -59 -151 -55 -19 1 -61 2 -93 2 -51 0 -59 2 -64 20 -3 12 -9 21 -13 21 -7 0 -18 35 -40 120 -6 25 -18 62 -27 82 -19 46 -13 64 30 84 33 16 36 16 67 -7 29 -22 41 -24 152 -24 119 0 120 0 142 -27 28 -35 113 -51 128 -25 5 10 15 17 23 17 12 0 50 51 67 92 8 18 65 58 83 58 47 0 57 -340 15 -510 -6 -25 -14 -72 -18 -105 -5 -33 -16 -75 -25 -93 -13 -24 -15 -37 -7 -51 5 -11 10 -29 10 -41 0 -11 11 -31 25 -44 14 -13 25 -32 25 -42 0 -11 10 -37 23 -59 20 -36 27 -40 65 -43 l42 -3 0 36 c0 20 -4 44 -9 54 -6 10 -15 54 -20 99 -10 81 -35 146 -65 172 -18 14 -14 55 12 125 32 87 21 466 -16 528 -13 23 -21 61 -25 130 -8 119 -22 147 -77 147 -34 0 -38 -3 -44 -31 -3 -17 -6 -61 -7 -98 -1 -68 -3 -71 -13 -11 -3 19 -17 47 -31 62 -14 15 -25 32 -25 38 0 5 -18 10 -40 10 -29 0 -40 -4 -40 -15 0 -29 -39 7 -42 40 -3 30 -4 30 -65 33 l-63 3 0 34 c0 34 -1 35 -40 35 l-40 0 0 44 c0 39 -3 45 -22 48 -19 2 -22 8 -18 28 3 14 5 60 5 103 l0 79 -73 39 c-76 41 -118 48 -140 24z m78 -87 c11 -12 20 -26 20 -31 0 -4 7 -15 15 -23 15 -16 19 -75 6 -107 -9 -25 -81 -56 -106 -46 -11 4 -35 8 -52 8 -22 1 -33 6 -33 16 0 8 -10 23 -22 34 -17 17 -19 23 -8 36 15 18 41 20 57 4 14 -14 75 65 66 87 -7 20 4 44 21 44 9 0 24 -10 36 -22z m-355 -158 c50 -25 94 -40 116 -40 21 0 42 -7 50 -16 11 -14 10 -20 -14 -40 -37 -31 -99 -39 -171 -20 -81 21 -90 37 -56 94 l20 32 -34 -4 c-66 -8 -96 -42 -96 -108 0 -31 -14 -37 -24 -12 -22 57 32 146 99 165 11 3 22 2 25 -2 3 -5 42 -26 85 -49z m1005 -402 c0 -69 -6 -88 -32 -88 -18 0 -19 5 -12 93 3 50 9 96 12 102 11 18 31 -50 32 -107z m-181 30 c7 -12 15 -46 18 -77 4 -47 2 -60 -17 -83 -21 -28 -50 -38 -50 -18 0 11 -41 7 -61 -6 -27 -17 -86 -21 -152 -13 -102 14 -117 18 -117 30 0 7 7 8 18 4 29 -11 85 -16 115 -9 26 5 27 7 11 19 -16 11 -16 17 -6 53 20 65 74 91 114 55 17 -15 18 -15 18 3 0 11 15 28 38 41 47 28 54 28 71 1z m82 -120 c-4 -35 -6 -38 -9 -15 -3 26 3 57 10 57 2 0 1 -19 -1 -42z m-526 -25 c16 -16 16 -17 -1 -30 -31 -23 -47 -12 -37 25 6 26 16 28 38 5z m670 -744 c12 -19 -5 -23 -22 -6 -16 16 -16 17 -1 17 9 0 20 -5 23 -11z"></path><path id="pH0aVWjzm" d="M68 1713 l-68 -4 0 -45 0 -46 133 6 c72 3 183 8 245 12 l113 6 -3 36 -3 37 -175 1 c-96 0 -205 -1 -242 -3z"></path><path id="pY1j27Mkf" d="M4602 1598 c-15 -15 -16 -92 -1 -121 7 -12 25 -38 40 -58 16 -20 29 -48 29 -62 0 -39 79 -87 141 -87 47 0 48 1 55 34 12 68 -21 152 -80 200 -19 16 -47 46 -62 67 -24 35 -31 39 -68 39 -23 0 -47 -5 -54 -12z m177 -174 c27 -20 53 -76 45 -98 -8 -21 -13 -20 -57 9 -30 21 -37 32 -37 59 0 49 11 56 49 30z"></path><path id="p7HbX2XVL" d="M8160 1565 l0 -35 60 0 60 0 0 35 0 35 -60 0 -60 0 0 -35z"></path><path id="p43ScuZMB" d="M3960 1407 c0 -27 6 -39 23 -48 12 -7 29 -20 38 -31 23 -25 85 -25 99 1 16 31 12 88 -6 95 -9 3 -47 9 -85 12 l-69 7 0 -36z"></path><path id="pthoa1XzJ" d="M7442 1368 l3 -43 43 -3 43 -3 -3 43 -3 43 -43 3 -43 3 3 -43z"></path><path id="puYVWtV9w" d="M7692 1363 c3 -27 10 -68 16 -93 6 -25 14 -58 17 -73 5 -26 9 -28 48 -25 53 4 56 18 31 146 l-18 92 -49 0 -49 0 4 -47z"></path><path id="ps09xEZwr" d="M4483 1313 c4 -67 34 -184 55 -218 3 -5 5 -41 4 -80 -2 -38 4 -119 13 -180 8 -60 20 -148 25 -195 6 -47 15 -112 20 -145 6 -33 10 -84 10 -113 0 -72 40 -187 103 -294 45 -77 55 -88 79 -88 28 0 39 22 18 35 -15 9 -96 158 -124 229 -20 50 -26 82 -26 143 0 43 -5 94 -10 114 -7 25 -70 461 -70 484 0 0 30 1 68 1 43 0 79 6 101 17 19 9 39 17 46 17 6 0 22 23 35 50 25 53 29 57 48 38 9 -9 12 -9 12 0 0 22 15 12 34 -23 10 -19 27 -37 36 -40 21 -7 110 -109 130 -150 8 -16 25 -44 37 -60 31 -43 43 -79 48 -147 6 -78 61 -193 133 -282 107 -132 152 -206 152 -254 0 -23 8 -59 17 -80 9 -20 19 -48 23 -62 4 -20 12 -26 43 -28 35 -3 37 -1 37 25 0 15 -9 60 -21 98 -11 39 -23 81 -26 95 -3 14 -11 30 -18 36 -8 5 -25 32 -39 59 -15 27 -50 74 -79 104 -29 31 -64 72 -77 91 -29 40 -81 143 -75 148 2 2 41 -8 86 -22 46 -14 106 -26 136 -26 l53 0 1 43 1 42 13 -30 c8 -16 14 -46 15 -67 0 -30 5 -39 34 -56 19 -11 42 -36 50 -54 10 -21 33 -43 59 -57 23 -12 67 -36 97 -53 113 -65 273 -91 420 -68 41 6 125 15 185 20 61 4 130 15 154 24 24 9 50 16 58 16 9 0 34 19 57 41 40 41 41 43 45 120 2 53 0 79 -8 79 -6 0 -11 6 -11 13 0 6 -12 21 -26 32 -56 44 -68 64 -65 105 2 32 -3 44 -23 63 -14 14 -26 33 -26 44 0 11 -9 30 -19 42 -11 13 -21 27 -23 32 -2 6 -23 15 -48 20 -24 6 -47 14 -50 18 -14 21 -103 52 -142 51 -81 -3 -129 0 -124 9 3 4 25 11 48 15 24 3 78 14 120 23 l78 18 0 34 0 34 -82 -7 c-46 -3 -108 -13 -138 -22 -30 -8 -80 -22 -110 -30 -30 -8 -90 -29 -132 -47 -72 -30 -78 -34 -78 -62 -1 -25 -9 -35 -47 -58 -39 -24 -50 -26 -77 -18 -17 5 -68 13 -112 16 -101 8 -124 -1 -124 -50 0 -31 -3 -35 -26 -35 -14 0 -33 -4 -43 -10 -10 -5 -55 -12 -100 -16 -80 -7 -83 -6 -110 20 -16 15 -43 58 -60 96 -28 60 -75 114 -149 170 -4 3 -27 31 -50 63 -42 56 -45 58 -85 55 -41 -3 -43 -5 -64 -58 -21 -54 -58 -94 -96 -104 -15 -4 -17 -2 -8 7 6 6 11 26 11 44 0 32 1 33 40 33 l40 0 0 45 0 45 -40 0 c-37 0 -40 -2 -40 -27 l-1 -28 -18 23 c-11 12 -22 22 -26 22 -12 0 -44 45 -45 62 0 9 -8 23 -18 30 -10 7 -27 25 -36 41 -14 21 -26 27 -54 27 l-35 0 6 -77z m157 -148 c32 -16 38 -33 18 -53 -22 -22 -57 -14 -73 18 -26 49 -2 64 55 35z m1741 -296 c24 -26 32 -29 45 -19 11 10 18 10 26 2 9 -9 7 -12 -7 -13 -19 0 -18 -1 3 -16 17 -12 22 -25 22 -57 0 -23 -6 -50 -13 -60 -12 -16 -16 -17 -34 -5 -17 10 -27 10 -48 1 -14 -7 -24 -16 -21 -21 5 -8 -79 -41 -105 -41 -7 0 -20 7 -30 16 -14 13 -30 15 -78 9 -66 -8 -93 -25 -40 -25 25 0 30 -3 22 -11 -21 -21 -286 4 -317 30 -22 18 -10 32 22 26 21 -5 18 -1 -13 15 -51 27 -57 33 -49 54 6 14 15 17 43 13 20 -3 55 -2 79 2 39 8 55 0 32 -14 -21 -13 -8 -24 46 -40 61 -18 81 -15 90 12 20 62 27 72 68 87 54 21 85 20 109 -1 18 -17 19 -17 16 11 -3 21 2 32 16 40 11 6 22 14 25 17 5 6 31 15 53 18 5 0 22 -13 38 -30z m-381 -14 c0 -11 -12 -15 -47 -15 -51 0 -50 15 2 23 17 2 33 5 38 6 4 0 7 -6 7 -14z m-104 -12 c-4 -4 -19 -8 -34 -10 -23 -2 -24 -1 -7 7 24 11 51 13 41 3z m-198 -51 c4 -27 -28 -31 -49 -6 -10 13 -10 17 2 25 22 14 44 6 47 -19z m883 -182 c41 -59 46 -77 27 -113 -6 -12 -14 -29 -18 -37 -4 -8 -33 -28 -66 -45 -54 -28 -67 -30 -164 -30 -58 -1 -152 -9 -210 -20 -102 -18 -107 -18 -165 0 -75 22 -185 74 -185 86 0 5 11 15 25 21 14 6 25 15 25 20 0 14 34 8 58 -10 20 -16 33 -17 90 -10 58 7 146 38 162 57 9 11 97 51 111 51 13 0 122 38 184 65 77 33 80 32 126 -35z m-666 -35 c22 -8 56 -15 75 -16 l35 -1 -39 -8 c-22 -4 -68 -5 -103 -2 -53 4 -63 8 -63 23 0 24 37 25 95 4z"></path><path id="pgC9BsXFd" d="M390 930 c-36 -4 -85 -12 -110 -18 -25 -6 -98 -16 -162 -23 l-118 -12 0 -54 c0 -52 1 -53 29 -53 16 0 40 4 53 9 20 7 122 16 466 37 l92 6 0 53 c0 39 -4 54 -16 59 -20 8 -149 5 -234 -4z"></path><path id="piXFjSqSD" d="M5070 766 c0 -21 17 -29 48 -21 26 6 26 7 8 21 -26 18 -56 18 -56 0z"></path></g></g><g id="l5VBzT83gsmPKxhLkIStJcA" fill="rgb(145,139,132)" style="transform: none;"><g style="transform: none;"><path id="pMHf36QTr" d="M240 5610 c0 -5 16 -10 35 -10 23 0 42 -8 59 -25 14 -14 32 -25 41 -25 9 0 28 -12 43 -27 38 -38 132 -83 173 -83 23 0 30 -3 20 -9 -22 -14 25 -34 63 -27 47 10 55 10 131 -3 44 -8 112 -10 185 -6 63 3 156 8 207 10 51 2 98 7 105 12 7 4 31 9 53 10 104 6 254 35 350 67 22 8 60 20 85 27 53 15 228 84 237 93 4 3 -397 6 -890 6 -591 0 -897 -3 -897 -10z"></path><path id="pCoTUYngZ" d="M5974 5548 c9 -97 15 -118 33 -118 13 0 15 9 9 53 -3 28 -6 71 -6 95 0 36 -3 42 -21 42 -20 0 -21 -3 -15 -72z"></path><path id="p1BL5vY8u9" d="M6655 5579 c-93 -74 -142 -127 -149 -160 -9 -48 -26 -53 154 45 117 65 176 104 204 135 l19 21 -45 0 c-32 0 -50 -6 -63 -20 -10 -11 -22 -20 -27 -20 -4 0 -8 9 -8 20 0 31 -29 24 -85 -21z"></path><path id="p5gx3uo0o" d="M7149 5608 c0 -7 -4 -51 -9 -98 -5 -55 -4 -89 2 -97 6 -8 33 -13 64 -13 53 0 53 0 63 38 6 20 11 44 11 53 0 29 12 28 57 -6 60 -46 144 -76 221 -80 35 -1 68 -7 75 -14 11 -11 18 -167 8 -186 -5 -9 -7 -24 -14 -136 -2 -25 -6 -49 -9 -55 -3 -5 -4 -34 -3 -64 1 -30 -2 -59 -5 -65 -9 -13 -27 -127 -45 -278 -8 -65 -18 -124 -23 -130 -6 -7 -13 -34 -17 -60 -4 -27 -14 -51 -22 -54 -8 -3 -11 -13 -7 -25 3 -10 0 -25 -6 -33 -7 -8 -10 -21 -7 -30 4 -8 -1 -19 -10 -23 -10 -6 -14 -17 -11 -30 4 -13 0 -23 -9 -26 -8 -3 -13 -12 -11 -18 3 -7 -1 -18 -8 -25 -7 -7 -10 -22 -7 -33 3 -11 1 -26 -5 -33 -6 -6 -13 -30 -17 -52 -4 -22 -16 -57 -26 -79 -10 -21 -16 -43 -13 -48 3 -5 1 -14 -4 -21 -5 -7 -15 -37 -21 -67 -7 -30 -21 -77 -31 -105 -10 -27 -23 -81 -30 -120 -6 -38 -15 -86 -20 -105 -5 -19 -14 -59 -21 -88 -9 -45 -14 -52 -30 -47 -17 6 -19 1 -19 -47 0 -30 5 -59 10 -64 13 -13 -5 -96 -44 -202 -30 -84 -34 -166 -10 -200 23 -33 48 -29 40 6 -19 84 -18 119 2 158 l20 39 7 -60 c14 -120 19 -131 81 -159 31 -14 62 -26 69 -26 7 0 23 -8 35 -18 17 -13 21 -24 16 -40 -6 -18 -15 -22 -46 -22 -21 0 -40 -5 -42 -12 -3 -7 -12 -6 -30 6 -17 11 -41 16 -70 14 -61 -4 -64 -35 -10 -92 34 -35 44 -56 67 -139 35 -132 32 -144 -26 -84 -36 36 -53 47 -78 47 -17 0 -31 4 -31 9 0 5 -21 19 -47 32 -27 12 -50 26 -53 30 -3 4 -14 8 -25 10 -13 3 -31 26 -50 65 -17 34 -54 88 -83 119 -28 32 -52 62 -52 66 0 17 -57 9 -74 -9 -17 -20 -94 -47 -103 -38 -3 3 -18 -1 -34 -9 -40 -21 -76 -19 -89 5 -6 11 -20 20 -30 20 -11 0 -20 7 -20 15 0 8 -4 15 -9 15 -13 0 -61 -59 -61 -74 0 -33 -287 -50 -298 -18 -4 13 -27 2 -117 -57 -49 -32 -56 -40 -99 -121 -30 -56 -52 -110 -117 -280 -23 -60 -179 -277 -232 -322 -18 -15 -38 -28 -44 -28 -7 0 -13 -4 -13 -10 0 -5 -9 -10 -20 -10 -25 0 -26 12 -2 32 62 54 142 142 157 175 10 21 23 45 31 53 18 21 79 148 154 320 35 80 69 152 76 160 6 8 19 30 28 47 18 37 184 203 202 203 6 0 17 6 23 14 24 28 150 96 207 111 64 17 253 21 300 6 16 -5 49 -14 74 -22 25 -7 54 -20 65 -28 35 -28 79 -57 98 -64 9 -3 17 -13 17 -22 0 -17 11 -33 48 -70 12 -12 22 -28 22 -35 0 -14 161 -173 168 -165 11 11 -43 125 -104 220 -24 39 -51 84 -59 101 -8 17 -27 37 -44 44 -16 6 -32 18 -35 25 -8 21 -113 85 -149 91 -18 3 -50 13 -73 21 -46 16 -260 14 -329 -5 -121 -31 -159 -44 -178 -57 -12 -8 -29 -15 -38 -15 -10 0 -28 -13 -42 -29 -14 -17 -27 -27 -30 -24 -8 8 -104 -26 -117 -42 -6 -7 -36 -26 -66 -41 -70 -35 -129 -99 -144 -156 -36 -131 -44 -159 -65 -218 -13 -36 -36 -105 -51 -155 -27 -88 -105 -256 -111 -238 -2 5 8 36 22 68 28 63 79 211 90 262 5 26 -4 52 -48 145 -77 159 -172 295 -288 414 -86 88 -94 91 -181 69 -59 -15 -188 -35 -188 -29 0 0 7 15 16 32 8 18 12 37 8 43 -9 15 -62 4 -86 -18 -25 -23 -22 -42 8 -53 35 -14 22 -28 -34 -36 -26 -3 -54 -10 -62 -15 -17 -10 16 -13 156 -13 106 -1 113 -5 176 -101 49 -75 158 -293 158 -317 0 -11 -7 -18 -18 -18 -10 0 -27 -6 -38 -14 -17 -13 -21 -12 -36 1 -10 9 -18 22 -18 28 0 7 -7 15 -15 19 -8 3 -15 4 -15 2 0 -2 7 -20 15 -39 30 -72 11 -63 -42 20 -7 11 -6 2 2 -22 23 -66 16 -73 -16 -17 -33 55 -47 64 -29 18 16 -42 13 -59 -7 -47 -11 5 -26 5 -42 0 -33 -13 -180 -13 -229 1 -47 12 -127 14 -194 5 -39 -6 -53 -3 -93 21 -45 26 -47 29 -42 64 2 20 17 65 32 100 33 79 42 120 25 120 -18 0 -70 -56 -70 -76 0 -10 -13 -41 -30 -71 -16 -29 -30 -64 -30 -78 0 -36 -17 -31 -25 8 -6 26 -29 82 -40 95 -1 1 -14 -4 -29 -11 -33 -18 -76 -11 -76 13 0 9 9 30 21 46 l21 29 -26 -27 c-21 -23 -33 -28 -74 -28 -26 0 -53 5 -60 12 -9 9 -15 9 -24 0 -7 -7 -26 -12 -43 -12 -18 0 -53 -14 -85 -35 -30 -19 -58 -35 -63 -35 -5 0 -22 -11 -37 -24 -16 -13 -45 -27 -65 -30 -20 -4 -56 -22 -80 -41 -57 -43 -104 -54 -122 -29 -12 16 -17 12 -71 -44 -33 -34 -64 -62 -71 -62 -16 0 -94 -40 -102 -53 -10 -14 -59 1 -59 17 0 29 -26 21 -52 -15 -15 -21 -35 -42 -45 -47 -10 -6 -75 -8 -148 -5 -173 7 -308 4 -320 -8 -13 -13 -28 -11 -49 4 -18 13 -18 15 2 60 12 28 17 49 11 53 -5 3 -29 -6 -54 -20 -57 -34 -85 -34 -85 -1 0 31 -11 31 -91 1 -42 -15 -71 -21 -84 -15 -11 4 -59 8 -107 8 -69 1 -94 5 -122 22 -39 23 -47 34 -18 27 58 -15 271 38 272 68 0 6 -18 14 -40 18 -25 4 -43 13 -47 24 -10 26 -21 30 -69 24 -42 -4 -44 -3 -44 21 0 23 -3 25 -27 18 -16 -4 -49 -5 -75 -3 l-48 4 0 59 0 59 -70 0 c-63 0 -70 2 -70 20 0 13 -7 20 -20 20 -13 0 -20 7 -20 20 0 11 -6 20 -14 20 -21 0 -56 75 -56 120 l0 40 -68 0 c-77 0 -92 9 -92 57 0 18 -3 32 -7 31 -19 -5 -80 25 -96 47 -15 22 -16 25 -2 25 33 0 13 46 -25 54 -18 4 -60 41 -60 52 0 7 -10 24 -22 37 -13 13 -30 34 -38 47 -34 54 -83 100 -106 100 -25 0 -54 33 -54 62 0 10 -7 18 -15 18 -8 0 -15 6 -15 13 0 8 -11 19 -25 25 -29 13 -31 28 -9 53 12 13 13 22 5 38 -6 11 -11 30 -11 43 0 15 -16 39 -40 63 -22 21 -40 47 -40 57 0 10 -7 18 -15 18 -8 0 -15 9 -15 20 0 11 -4 20 -10 20 -5 0 -10 -5 -10 -11 0 -8 -5 -7 -16 2 -15 12 -14 15 10 36 14 12 26 27 26 33 0 23 -49 60 -81 60 -31 0 -31 1 -24 38 8 44 8 40 6 75 -1 19 -6 27 -20 27 -11 0 -23 12 -31 30 -7 17 -16 30 -21 30 -5 0 -9 6 -9 14 0 11 -14 13 -62 11 -55 -3 -66 -1 -105 26 -30 21 -43 36 -42 52 l2 22 4 -22 c6 -29 43 -32 43 -4 0 12 8 21 23 24 16 3 14 5 -10 6 -17 0 -35 6 -38 11 -3 6 -17 10 -29 10 -24 0 -36 21 -36 68 0 18 -6 22 -29 22 -39 0 -61 9 -61 26 0 8 -4 14 -10 14 -5 0 -10 9 -10 20 0 13 7 20 20 20 30 0 25 26 -14 74 -26 31 -47 45 -83 54 -53 15 -83 37 -83 62 0 13 19 19 87 31 101 16 119 35 41 42 -95 9 -199 36 -247 64 l-46 28 33 3 c17 2 32 5 32 8 0 3 -13 19 -30 37 -16 18 -30 35 -30 40 0 4 -8 7 -17 7 -22 0 -63 42 -63 64 0 9 -12 21 -26 26 -58 22 -54 66 -54 -630 l0 -640 45 0 c25 0 45 5 45 10 0 6 14 10 30 10 17 0 30 5 30 10 0 6 49 10 126 10 123 0 126 1 155 27 16 16 29 32 29 36 0 5 7 15 15 23 8 9 15 33 15 55 0 21 5 39 10 39 6 0 10 9 10 20 0 16 7 20 30 20 23 0 30 -5 30 -19 0 -11 11 -28 25 -39 14 -11 25 -23 25 -28 0 -16 86 -134 108 -145 12 -7 22 -18 22 -26 0 -7 19 -40 43 -73 73 -105 87 -125 100 -145 6 -10 27 -33 45 -50 19 -16 40 -45 47 -62 8 -18 18 -33 24 -33 5 0 26 -24 46 -54 19 -29 73 -97 120 -150 46 -53 97 -113 112 -134 40 -53 310 -318 360 -353 23 -16 48 -37 55 -47 7 -10 48 -44 91 -76 43 -32 81 -64 84 -72 3 -8 10 -14 17 -14 6 0 25 -15 42 -32 123 -131 173 -157 306 -158 108 0 134 -10 184 -69 l28 -34 76 6 c41 3 132 2 201 -3 70 -4 173 -4 230 0 57 5 121 6 142 3 33 -5 37 -9 37 -35 0 -19 9 -37 25 -51 14 -12 83 -79 153 -148 70 -69 142 -134 160 -144 35 -21 49 -45 26 -45 -8 0 -33 -9 -56 -21 -35 -18 -50 -20 -125 -14 -88 8 -133 -3 -133 -32 0 -33 -44 -36 -297 -21 -137 9 -264 15 -283 15 -19 0 -60 5 -90 11 -80 16 -442 31 -530 21 -185 -20 -668 -22 -1155 -4 -448 16 -697 16 -797 -1 -32 -6 -38 -11 -38 -31 l0 -24 215 7 c118 3 222 3 232 -2 18 -9 -68 -16 -324 -30 l-123 -6 0 -40 0 -39 238 0 c801 2 2309 -25 2542 -45 102 -8 343 -20 535 -25 415 -11 610 -21 621 -32 4 -4 7 -27 5 -51 -2 -42 0 -45 43 -76 46 -31 57 -52 34 -66 -6 -4 -102 -15 -212 -25 -111 -10 -286 -28 -391 -39 -104 -11 -278 -29 -385 -40 -192 -20 -254 -26 -800 -75 -151 -14 -318 -29 -370 -35 -150 -15 -327 -29 -575 -45 -635 -41 -907 -63 -985 -81 -36 -8 -117 -20 -180 -27 -107 -11 -115 -14 -118 -35 -3 -19 1 -22 35 -22 49 0 283 29 295 36 5 3 32 7 61 9 29 2 82 7 118 10 43 5 73 4 85 -3 17 -10 16 -11 -11 -12 -22 0 -26 -3 -16 -9 8 -5 20 -7 28 -4 7 3 13 -1 13 -10 0 -12 -19 -16 -92 -21 -350 -21 -428 -28 -470 -38 l-48 -12 0 -44 0 -44 48 6 c26 3 121 10 212 15 91 6 194 15 230 20 98 15 232 30 360 41 63 5 189 19 280 30 91 11 185 20 208 20 24 0 58 7 75 15 18 8 84 21 147 29 244 32 276 37 319 47 49 11 347 44 491 54 52 4 120 13 150 21 32 8 132 16 245 19 104 3 228 10 275 15 377 41 587 58 843 66 109 4 200 11 203 15 3 5 22 9 42 9 20 0 53 4 72 9 19 5 82 15 139 22 86 10 106 10 109 0 3 -8 12 -21 21 -30 28 -29 51 -90 51 -135 0 -24 9 -97 21 -162 11 -66 27 -182 35 -259 23 -232 32 -292 52 -337 10 -24 22 -52 26 -63 4 -11 28 -55 53 -97 40 -69 48 -78 74 -78 16 0 29 2 29 4 0 2 -25 44 -55 94 -66 107 -115 237 -115 307 0 47 -19 207 -40 340 -18 114 -34 284 -27 291 3 4 20 0 37 -8 27 -13 38 -13 88 0 76 19 109 46 135 111 12 30 27 56 34 58 6 2 31 -22 55 -54 23 -32 46 -60 50 -63 74 -56 121 -110 149 -170 17 -38 44 -81 59 -95 26 -25 35 -27 97 -26 37 1 93 6 123 12 30 6 70 13 88 16 29 5 32 9 32 39 0 52 25 58 157 38 31 -5 32 -7 35 -56 2 -32 8 -53 16 -56 10 -3 13 6 12 34 -3 61 -2 64 25 64 13 0 46 14 72 30 26 17 57 30 69 30 11 0 51 14 87 30 52 24 81 30 132 30 41 0 65 -4 65 -11 0 -11 7 -10 82 6 16 3 98 -32 108 -46 3 -5 26 -12 50 -18 25 -5 46 -14 48 -20 2 -5 12 -19 23 -32 10 -12 19 -31 19 -42 0 -11 11 -30 26 -43 29 -28 25 -41 -26 -78 -40 -29 -75 -45 -145 -70 -27 -10 -66 -24 -85 -31 -73 -27 -220 -44 -220 -25 0 9 -12 11 -42 7 -23 -3 -59 0 -82 8 -23 7 -59 15 -81 18 -22 3 -50 9 -62 13 -21 6 -22 4 -17 -25 6 -28 4 -31 -19 -31 -14 0 -33 -8 -42 -17 -16 -15 -14 -17 31 -29 136 -34 279 -25 414 27 30 11 71 24 90 29 19 4 76 24 125 44 50 21 110 42 135 47 40 8 47 7 67 -13 12 -13 34 -32 48 -43 13 -11 25 -26 25 -32 0 -7 4 -13 8 -13 5 0 8 -23 6 -50 -2 -44 -8 -56 -42 -90 -22 -22 -46 -40 -55 -40 -8 0 -34 -7 -58 -16 -24 -9 -93 -20 -154 -24 -60 -5 -144 -14 -185 -20 -149 -23 -256 5 -450 117 -42 25 -60 43 -61 60 -1 14 -33 44 -62 59 -21 11 -25 19 -19 31 6 10 2 32 -11 64 -19 45 -24 49 -54 49 -32 0 -33 -1 -33 -40 0 -35 -3 -40 -23 -40 -22 0 -165 40 -213 60 -29 11 -64 2 -64 -18 0 -23 69 -161 104 -207 16 -22 51 -62 77 -90 27 -27 60 -72 74 -99 15 -28 32 -55 40 -60 7 -6 15 -22 18 -36 3 -14 16 -62 29 -108 l23 -82 837 0 c705 0 838 2 838 14 0 7 7 19 15 26 8 7 15 23 15 35 0 23 22 49 33 39 3 -4 11 14 18 40 6 25 15 46 19 46 20 0 86 209 111 352 22 129 25 225 6 193 -24 -40 -109 -114 -139 -120 -17 -4 -60 -22 -97 -40 -64 -32 -96 -40 -213 -50 -42 -4 -60 -2 -71 10 -9 8 -21 15 -27 15 -7 0 -22 8 -34 18 -20 16 -23 26 -23 97 0 44 -3 106 -7 138 -6 47 -4 63 9 84 16 23 16 25 1 20 -9 -4 -16 -2 -16 3 0 6 5 10 10 10 6 0 10 10 10 23 1 12 7 33 14 46 l14 24 25 -25 c16 -16 24 -33 21 -45 -8 -29 37 -64 91 -71 26 -2 94 1 151 8 58 7 131 12 162 13 57 0 87 13 139 60 19 17 20 22 8 31 -11 9 -12 20 -5 51 5 22 10 65 10 96 0 66 9 119 20 119 23 0 41 -57 47 -147 4 -69 12 -107 25 -130 33 -56 46 -384 18 -458 -6 -16 -18 -59 -25 -95 -13 -61 -13 -66 5 -90 41 -52 61 -103 71 -182 5 -45 15 -91 21 -102 6 -12 11 -22 10 -23 -9 -13 2 -33 18 -33 24 0 25 22 8 154 -12 94 -56 216 -79 216 -19 0 -2 88 26 136 25 43 34 119 15 126 -6 2 -11 93 -12 230 -3 221 -4 228 -23 228 -18 0 -20 5 -17 38 2 20 -3 58 -11 84 l-15 47 58 -30 c40 -21 60 -38 64 -55 6 -21 12 -24 54 -24 57 0 72 12 72 59 0 40 -29 189 -41 213 -7 13 -2 17 29 22 86 15 244 23 334 18 84 -4 104 -2 145 16 32 13 90 24 173 31 69 6 177 16 240 22 63 6 178 15 255 20 77 4 244 15 370 24 274 18 564 34 623 35 l42 0 0 70 0 70 -77 0 c-76 0 -334 -18 -578 -40 -66 -6 -210 -17 -320 -25 -110 -8 -285 -21 -390 -30 -104 -8 -280 -22 -390 -30 -110 -8 -285 -23 -390 -34 -311 -32 -333 -33 -344 -13 -5 10 -6 35 -1 57 4 22 17 85 29 140 11 55 24 136 27 180 6 70 3 89 -18 152 -41 115 -42 113 130 146 81 16 192 40 247 53 55 13 111 24 124 24 14 0 50 6 80 14 31 8 119 22 196 30 77 9 181 25 230 36 89 19 252 44 394 61 40 5 117 18 170 28 53 11 152 24 221 31 160 14 231 24 468 62 l192 32 0 78 0 78 -47 0 c-27 0 -86 -6 -133 -14 -47 -8 -132 -19 -190 -26 -58 -6 -134 -15 -170 -20 -36 -5 -114 -17 -175 -25 -133 -19 -190 -28 -365 -60 -261 -47 -326 -57 -405 -66 -130 -14 -223 -28 -350 -54 -136 -26 -258 -47 -425 -70 -63 -9 -134 -21 -158 -27 -51 -13 -92 -57 -92 -99 0 -36 -27 -39 -57 -7 -47 52 -75 111 -107 223 -19 66 -39 121 -44 123 -5 1 -18 10 -28 18 -16 13 -15 13 13 -1 36 -17 84 -20 98 -6 6 5 26 11 45 13 l35 3 0 64 c0 61 -1 65 -30 81 -67 36 -114 204 -66 230 11 5 24 10 29 10 9 0 37 -78 48 -137 3 -17 17 -42 30 -54 18 -17 24 -33 24 -66 0 -43 0 -43 35 -43 28 0 35 4 35 20 0 13 7 20 19 20 15 0 24 15 41 72 25 80 23 182 -5 224 -26 41 -19 62 24 74 22 6 80 24 129 40 l90 30 294 -1 c483 -2 496 -2 608 21 114 23 214 50 298 81 30 10 75 19 102 19 120 0 247 71 309 173 13 21 29 44 36 51 8 7 22 27 32 43 10 17 58 66 107 109 80 71 127 128 155 189 5 12 28 38 52 59 24 20 70 63 101 94 l58 57 -1 105 0 105 -18 -40 c-10 -22 -14 -42 -9 -43 13 -6 -24 -61 -58 -87 l-32 -24 -7 35 c-3 20 -3 49 0 65 4 16 2 29 -3 29 -8 0 -17 -25 -41 -115 -14 -54 -102 -224 -133 -258 -22 -23 -30 -26 -66 -21 -22 3 -49 1 -59 -5 -11 -6 -13 -11 -5 -11 7 0 10 -5 7 -10 -4 -6 -10 -8 -15 -5 -11 7 -40 -35 -40 -58 0 -11 -23 -67 -51 -124 -73 -152 -150 -228 -251 -247 -42 -8 -46 -2 -22 32 9 13 14 26 11 29 -7 7 -76 -15 -106 -35 -33 -20 -88 -34 -129 -33 -19 1 -46 -5 -60 -13 -15 -8 -54 -24 -87 -36 -33 -12 -73 -28 -90 -35 -47 -21 -250 -30 -278 -12 -34 22 -71 25 -164 15 -52 -6 -89 -6 -96 0 -17 14 -117 25 -117 13 0 -6 -30 -7 -74 -4 -49 4 -75 2 -80 -6 -4 -6 -15 -11 -25 -11 -10 0 -31 -6 -47 -14 -95 -46 -230 -96 -298 -110 -16 -3 -45 -90 -45 -137 -1 -32 -8 -55 -23 -74 l-21 -28 -13 39 c-103 329 -107 339 -138 342 -20 3 -26 9 -26 26 0 13 7 29 15 36 9 8 12 22 8 41 -6 30 12 118 54 274 13 50 26 101 29 115 3 13 9 29 13 35 8 11 30 84 38 124 2 13 14 49 27 80 13 31 29 75 35 99 11 40 14 42 49 42 36 0 62 14 62 32 0 4 -16 8 -36 8 -35 0 -35 1 -29 33 4 17 13 45 21 61 8 16 14 37 14 48 0 11 7 18 18 18 13 0 40 43 101 163 45 89 80 155 77 147 -3 -8 -26 -64 -50 -125 -37 -90 -46 -121 -46 -172 0 -60 1 -63 25 -63 22 0 24 2 14 27 -14 38 -5 69 71 227 98 206 102 216 116 274 15 62 9 68 -57 59 -54 -7 -64 -17 -95 -100 -14 -40 -48 -122 -75 -184 -27 -61 -54 -124 -60 -140 -19 -46 -22 -8 -6 64 9 38 18 102 22 143 3 41 10 104 15 140 13 87 18 146 26 330 4 85 10 162 15 171 5 11 28 18 71 22 35 4 81 13 103 21 69 25 168 86 215 133 29 30 48 42 56 37 6 -5 28 -22 48 -37 66 -53 162 -60 302 -23 76 20 164 58 164 72 0 2 -83 4 -185 4 -158 0 -185 -2 -185 -15 0 -19 -9 -19 -34 0 -24 18 -196 21 -227 5 -13 -7 -19 -7 -19 0 0 17 -50 11 -78 -9 -49 -35 -233 -97 -247 -83 -3 3 -5 27 -5 54 0 45 -2 48 -25 48 -22 0 -25 -4 -25 -34 0 -43 -9 -66 -25 -66 -36 0 -150 45 -179 70 -39 35 -86 41 -86 11 0 -16 -6 -18 -45 -13 -41 4 -45 3 -55 -22 -5 -15 -10 -40 -10 -56 0 -41 -10 -60 -29 -60 -16 0 -17 6 -10 48 4 26 8 64 8 85 1 33 -2 37 -24 37 -14 0 -25 -6 -26 -12z m342 -124 l34 -15 -35 6 c-19 3 -39 10 -44 15 -15 15 7 12 45 -6z m57 -2578 c2 -9 1 -25 -3 -34 -6 -15 -8 -15 -15 3 -13 31 -12 57 3 53 6 -3 14 -12 15 -22z m-2259 -120 c33 -19 56 -30 106 -50 46 -20 76 -57 141 -182 53 -101 53 -104 0 -242 -61 -157 -121 -258 -200 -335 -64 -62 -79 -68 -168 -74 -58 -4 -93 -12 -116 -25 l-33 -20 -6 21 c-5 19 -12 21 -99 21 l-93 0 -124 123 c-68 67 -150 160 -182 207 -33 47 -64 88 -70 93 -5 4 -26 6 -45 5 -31 -3 -38 -9 -60 -53 -41 -81 -42 -82 -52 -56 -12 34 -23 388 -11 376 5 -5 18 -31 27 -57 16 -44 20 -48 52 -48 19 0 34 -4 34 -9 0 -6 20 -13 45 -17 25 -3 48 -10 50 -15 3 -4 122 -8 265 -8 148 -1 281 -6 310 -12 54 -12 120 -5 132 14 4 6 34 10 72 9 l66 -2 0 34 c0 43 -16 86 -79 220 l-51 108 31 -6 c17 -3 43 -12 58 -20z m-1137 -156 c73 2 78 -7 78 -152 1 -193 14 -309 36 -325 39 -29 66 -13 101 60 18 37 37 67 42 67 6 0 33 -34 61 -75 l50 -74 -70 -152 c-72 -154 -82 -196 -45 -192 89 11 94 14 115 61 15 33 20 65 19 107 -1 34 5 75 13 95 l15 35 36 -36 c21 -21 37 -47 38 -60 0 -13 1 -51 2 -84 l2 -60 43 -3 c25 -2 42 1 42 7 0 15 35 14 48 -1 12 -17 -13 -108 -31 -108 -7 0 -19 13 -29 29 -22 40 -89 61 -126 40 -29 -16 -63 -79 -89 -162 -10 -33 -22 -59 -28 -60 -5 0 -30 -6 -54 -14 -83 -25 -141 -14 -141 27 0 18 39 40 70 40 11 0 24 8 29 19 16 29 -28 65 -68 56 -17 -4 -31 -3 -32 2 -9 116 -21 173 -38 173 -4 0 -15 -16 -25 -35 -16 -29 -18 -47 -12 -117 4 -46 12 -104 18 -130 13 -55 5 -71 -50 -93 -27 -12 -55 -13 -137 -6 -56 5 -113 15 -126 22 -14 8 -62 14 -119 14 -52 1 -196 7 -320 13 -124 6 -331 16 -460 22 -358 17 -768 27 -1269 29 -410 1 -519 7 -471 25 8 4 71 8 140 10 148 5 496 23 629 34 53 4 182 3 291 -4 181 -10 200 -13 230 -34 32 -23 33 -23 66 -5 36 19 7 21 419 -20 168 -17 195 -14 221 21 15 19 28 24 66 24 32 0 73 11 127 35 43 19 95 35 115 35 25 0 39 6 50 22 20 29 6 52 -57 94 -93 61 -205 163 -251 226 -11 15 -42 43 -68 64 -26 20 -48 42 -48 49 0 11 48 47 83 63 4 2 34 -22 66 -55 32 -32 69 -67 82 -78 129 -110 161 -136 209 -168 103 -67 146 -63 173 13 19 52 18 83 -8 460 -7 98 17 135 94 145 15 2 54 20 87 39 42 26 66 34 84 30 14 -3 51 -5 82 -4z m2738 -134 c60 -14 59 -12 43 -91 -5 -23 -15 -41 -23 -43 -18 -3 -51 53 -44 73 9 22 -24 30 -45 11 -23 -21 -31 -20 -31 5 0 11 10 29 23 40 12 10 22 18 22 18 0 0 25 -6 55 -13z m-3110 -317 c8 -127 8 -151 -7 -187 -9 -23 -20 -42 -25 -42 -36 0 -406 310 -393 329 2 4 35 20 72 36 66 28 203 97 293 149 l45 26 2 -83 c2 -45 7 -148 13 -228z m2860 232 c0 -11 -9 -23 -20 -26 -11 -3 -20 -11 -20 -17 0 -7 23 -8 70 -4 89 9 91 0 13 -102 -173 -225 -188 -253 -137 -272 62 -24 87 -14 153 60 35 39 71 70 80 70 10 0 29 11 43 24 14 12 33 26 42 29 12 5 15 14 11 30 -5 17 -2 26 9 30 12 5 16 0 16 -15 0 -15 3 -19 11 -11 14 14 53 5 64 -17 64 -119 65 -145 10 -174 -33 -18 -34 -18 -74 4 -33 19 -43 21 -56 10 -8 -7 -15 -18 -15 -26 0 -18 -86 -104 -104 -104 -8 0 -39 5 -67 11 -52 11 -53 11 -79 -20 -35 -44 -83 -49 -193 -22 -47 11 -104 21 -126 21 l-41 0 -1 -42 c-1 -46 -7 -72 -25 -102 -11 -18 -13 -19 -29 -3 -9 9 -28 17 -41 17 -34 0 -79 47 -95 98 -7 23 -27 58 -45 76 -33 34 -55 86 -36 86 19 0 79 -29 92 -44 7 -9 20 -16 29 -16 9 0 22 -5 28 -11 13 -13 63 2 86 25 20 20 105 66 120 66 8 0 20 -7 27 -15 8 -9 20 -13 29 -9 9 3 26 8 38 9 40 5 68 17 91 38 37 34 29 47 -29 42 -28 -2 -54 -6 -57 -9 -9 -10 -31 15 -25 30 3 7 0 27 -5 44 -6 16 -7 32 -2 35 20 12 40 71 40 117 0 26 5 48 10 48 6 0 10 7 10 15 0 9 10 15 23 16 12 0 38 7 57 14 19 7 54 14 78 14 35 1 42 -2 42 -18z m333 -67 c4 -1 14 -2 23 -3 21 -1 15 -40 -9 -55 -14 -8 -20 -8 -27 4 -6 9 -10 10 -10 3 0 -7 -9 -17 -21 -23 -19 -11 -20 -9 -13 27 8 45 22 66 38 56 6 -4 14 -8 19 -9z m-103 -4 c12 -7 12 -12 3 -21 -9 -9 -16 -9 -27 1 -26 21 -5 39 24 20z m-71 -69 c17 -11 11 -19 -109 -149 -125 -136 -130 -121 -12 38 63 85 93 120 101 120 3 0 12 -4 20 -9z m-1570 -420 c11 -7 7 -13 -17 -25 -16 -8 -36 -21 -44 -29 -7 -7 -29 -23 -49 -35 -27 -16 -38 -19 -47 -10 -40 40 22 108 97 108 25 0 52 -4 60 -9z m1755 -250 c-1 -42 -6 -67 -17 -79 -10 -10 -17 -30 -17 -43 0 -35 -98 -79 -178 -79 -42 0 -68 -7 -101 -25 -49 -28 -75 -31 -128 -11 -21 7 -56 19 -78 26 -22 7 -50 22 -63 33 -20 18 -24 19 -32 7 -21 -32 -10 -55 65 -139 16 -18 39 -37 50 -41 19 -7 19 -7 -1 -18 -46 -24 -171 17 -158 52 2 6 -5 21 -16 33 -11 12 -20 29 -20 37 0 8 -10 31 -21 51 l-22 36 21 19 c11 11 33 36 48 56 15 20 37 40 48 45 12 5 35 18 52 28 35 21 39 20 76 -31 31 -41 84 -60 102 -36 30 39 83 66 135 70 59 3 66 10 76 69 3 19 13 44 22 56 l17 21 70 -39 71 -38 -1 -60z m-2290 -60 c15 -21 43 -51 62 -67 37 -30 70 -84 74 -119 7 -65 -13 -71 -83 -24 -35 23 -47 37 -47 56 0 13 -16 45 -35 70 -41 54 -52 87 -35 108 20 24 35 18 64 -24z m-250 -123 c-4 -61 -11 -97 -20 -104 -16 -13 -165 -34 -237 -34 -64 0 -73 22 -27 63 18 16 39 46 45 66 14 42 77 80 135 82 19 1 49 5 65 9 17 4 33 8 37 9 4 0 5 -41 2 -91z m2563 32 c24 0 12 -44 -13 -48 -17 -2 -22 3 -26 28 -4 24 -1 30 9 25 8 -3 21 -5 30 -5z m578 -9 c7 -13 -30 -24 -55 -16 -28 9 -15 25 20 25 16 0 31 -4 35 -9z m-3502 -48 c21 -5 21 -13 3 -38 -13 -18 -14 -18 -38 6 -14 13 -34 30 -44 36 -16 11 -13 12 21 7 22 -3 48 -8 58 -11z m3415 -32 c3 -8 -1 -12 -9 -9 -7 2 -15 10 -17 17 -3 8 1 12 9 9 7 -2 15 -10 17 -17z m274 -63 c12 -56 14 -86 7 -93 -13 -13 -29 11 -29 46 0 15 -7 46 -15 69 -19 54 -19 60 3 60 14 0 21 -17 34 -82z m-3204 -2 c12 -11 22 -27 22 -35 1 -17 33 -61 45 -61 13 0 44 -45 45 -65 0 -46 -64 -62 -99 -24 -24 26 -60 138 -65 204 -4 49 -4 50 12 25 9 -13 27 -33 40 -44z m2502 34 c-30 -32 -64 -41 -54 -15 4 8 12 15 19 15 7 0 18 7 25 15 7 8 18 15 25 15 7 0 0 -13 -15 -30z m155 -52 c3 -3 -10 -13 -30 -22 -47 -23 -44 -36 9 -36 47 0 66 -14 47 -33 -17 -17 -13 -37 6 -37 20 0 73 48 73 67 0 7 5 13 10 13 6 0 10 -5 10 -10 0 -6 11 -23 25 -37 33 -36 40 -75 20 -106 -8 -13 -14 -35 -11 -48 8 -54 -40 -93 -130 -104 -11 -2 -45 -8 -75 -14 -166 -32 -221 -5 -235 118 -6 57 -5 64 18 89 14 15 29 40 32 57 8 34 28 50 106 86 49 23 111 32 125 17z m-2465 -83 c0 -8 -4 -15 -10 -15 -5 0 -10 7 -10 15 0 8 5 15 10 15 6 0 10 -7 10 -15z m1555 -74 c-17 -14 -175 -48 -175 -37 0 6 70 26 130 36 25 4 47 8 50 9 2 0 0 -3 -5 -8z m283 -6 c10 -10 -7 -17 -20 -9 -7 5 -19 9 -26 10 -8 2 -17 6 -20 10 -8 8 58 -3 66 -11z m-483 -43 c-14 -12 -134 -62 -148 -62 -7 0 -29 -9 -50 -20 -25 -14 -37 -16 -37 -8 0 13 73 48 164 79 56 19 85 24 71 11z m545 -24 c8 -18 15 -37 15 -43 0 -12 39 -45 54 -45 17 0 13 -17 -5 -24 -29 -11 -42 -6 -48 20 -4 14 -18 43 -31 65 -28 43 -31 59 -12 59 6 0 19 -15 27 -32z m155 -88 c-3 -5 -18 -10 -33 -9 -24 0 -25 1 -7 9 28 12 47 12 40 0z"></path><path id="pB0ovIyEL" d="M3750 1765 c0 -8 5 -15 10 -15 6 0 10 7 10 15 0 8 -4 15 -10 15 -5 0 -10 -7 -10 -15z"></path><path id="p14yX36bvv" d="M6893 2453 c-18 -7 -16 -23 2 -23 8 0 15 7 15 15 0 8 -1 15 -2 14 -2 0 -9 -3 -15 -6z"></path><path id="p1BHhHMHyS" d="M7002 1038 c-17 -11 -30 -24 -27 -28 7 -12 94 -40 99 -32 2 4 7 24 11 45 7 36 6 37 -21 36 -16 0 -44 -10 -62 -21z"></path><path id="p15Q1KEb8F" d="M4685 5568 c12 -86 17 -98 32 -98 13 0 15 9 9 53 -3 28 -6 60 -6 70 0 11 -8 17 -21 17 -19 0 -20 -4 -14 -42z"></path><path id="pgbj3zs4Q" d="M5270 5513 c0 -34 12 -63 26 -63 10 0 14 13 14 40 0 33 -3 40 -20 40 -12 0 -20 -7 -20 -17z"></path><path id="p1DlzO6X0E" d="M4700 5423 c0 -34 12 -63 26 -63 10 0 14 13 14 40 0 33 -3 40 -20 40 -12 0 -20 -7 -20 -17z"></path><path id="p18msHtKfS" d="M4710 5298 c0 -30 13 -58 26 -58 9 0 14 12 14 35 0 28 -4 35 -20 35 -11 0 -20 -6 -20 -12z"></path><path id="pGWg3RIdo" d="M6280 5285 c0 -22 4 -25 36 -25 44 0 42 18 -4 37 -31 13 -32 12 -32 -12z"></path><path id="p1GTOdbdLk" d="M6120 5286 c13 -16 103 -76 113 -76 4 0 7 11 7 25 0 21 -5 25 -30 25 -23 0 -30 4 -30 20 0 16 -7 20 -36 20 -31 0 -35 -2 -24 -14z"></path><path id="pA0USCynY" d="M6418 5293 c-13 -3 -18 -15 -18 -44 0 -21 4 -39 9 -39 9 0 41 61 41 79 0 11 -3 12 -32 4z"></path><path id="pGnFF0kYf" d="M4820 5235 c0 -28 4 -35 20 -35 21 0 24 10 14 48 -10 36 -34 27 -34 -13z"></path><path id="pRXJ7IBQp" d="M6250 5212 c0 -28 98 -48 127 -27 25 18 18 22 -59 30 -47 5 -68 4 -68 -3z"></path><path id="pKbQYIhQG" d="M8676 5178 c-18 -15 -36 -52 -55 -109 -32 -95 -129 -341 -161 -406 -11 -23 -20 -47 -20 -53 0 -5 -4 -10 -9 -10 -5 0 -13 -9 -16 -21 -4 -11 -34 -47 -68 -80 -66 -63 -164 -117 -263 -143 -32 -8 -69 -18 -81 -22 -21 -6 -42 -58 -30 -71 10 -9 201 39 277 70 111 45 204 111 246 172 34 50 121 226 130 262 4 16 18 53 31 83 14 30 35 87 48 127 13 39 30 84 38 100 8 16 17 49 19 73 3 44 2 45 -28 48 -22 2 -40 -4 -58 -20z"></path><path id="pZbTCtyDB" d="M5848 5169 c-22 -12 -23 -29 -3 -29 8 0 15 -9 15 -20 0 -11 -7 -20 -15 -20 -8 0 -15 -4 -15 -10 0 -5 -11 -10 -25 -10 -18 0 -25 -5 -25 -20 0 -24 15 -25 64 -5 44 19 64 54 50 92 -11 31 -22 36 -46 22z"></path><path id="pCUQp1lTD" d="M5440 5155 c12 -14 93 -65 104 -65 3 0 6 11 6 25 0 20 -5 25 -25 25 -16 0 -25 6 -25 15 0 11 -11 15 -36 15 -31 0 -35 -2 -24 -15z"></path><path id="p1B1KAIkTq" d="M4547 5143 c-15 -15 -7 -43 13 -43 15 0 20 7 20 25 0 24 -18 34 -33 18z"></path><path id="pMdCN71DV" d="M5110 5074 c0 -33 33 -30 38 4 3 17 -2 22 -17 22 -16 0 -21 -6 -21 -26z"></path><path id="p18Uanl5So" d="M4540 5065 c0 -18 5 -25 20 -25 15 0 20 7 20 25 0 18 -5 25 -20 25 -15 0 -20 -7 -20 -25z"></path><path id="p18OtoS5m" d="M5670 5066 c0 -13 28 -26 58 -26 6 0 12 9 12 20 0 16 -7 20 -35 20 -23 0 -35 -5 -35 -14z"></path><path id="pGFTDfwii" d="M4670 5055 c0 -8 7 -15 15 -15 8 0 23 -10 35 -22 l20 -22 0 37 c0 36 -1 37 -35 37 -24 0 -35 -5 -35 -15z"></path><path id="p1zji6Mqw" d="M5282 5026 c3 -19 10 -21 57 -20 48 2 70 13 71 35 0 4 -29 6 -65 6 -61 -1 -66 -2 -63 -21z"></path><path id="pI11G1xly" d="M4730 4958 c0 -30 13 -58 26 -58 9 0 14 12 14 35 0 28 -4 35 -20 35 -11 0 -20 -6 -20 -12z"></path><path id="pgKi2LYZG" d="M4840 4925 c0 -28 4 -35 20 -35 21 0 24 10 14 48 -10 36 -34 27 -34 -13z"></path><path id="pke5vUGxg" d="M7090 4903 c0 -15 15 -22 78 -36 122 -28 263 -75 226 -76 -17 -1 -64 8 -105 18 -76 19 -202 41 -238 41 -12 0 -21 -6 -21 -14 0 -14 11 -18 95 -31 22 -4 72 -15 110 -25 39 -11 92 -22 118 -25 42 -6 51 -11 72 -46 24 -38 27 -39 80 -39 61 0 61 1 44 65 -14 53 -62 102 -108 110 -20 3 -88 19 -151 35 -173 43 -200 46 -200 23z m410 -183 c0 -21 -19 -8 -39 26 -12 19 -21 38 -21 42 1 11 60 -57 60 -68z"></path><path id="pjhbXxLxt" d="M6818 4889 c-29 -16 -21 -29 17 -29 28 0 35 4 35 20 0 22 -24 26 -52 9z"></path><path id="pBTMtOM2E" d="M4900 4817 c0 -41 12 -51 55 -45 l26 3 -40 40 -41 39 0 -37z"></path><path id="pWQqc3DpG" d="M6250 4801 c-15 -30 -12 -51 8 -51 21 0 48 42 38 59 -11 17 -34 13 -46 -8z"></path><path id="pxidvnc5I" d="M6770 4795 c0 -24 1 -25 32 -12 46 19 48 37 4 37 -32 0 -36 -3 -36 -25z"></path><path id="p1BhUiOP4C" d="M4780 4801 c0 -6 11 -23 25 -38 l24 -28 1 38 c0 33 -3 37 -25 37 -14 0 -25 -4 -25 -9z"></path><path id="p115hwpvkN" d="M6620 4797 c-27 -22 -90 -97 -90 -107 0 -6 11 -10 25 -10 22 0 25 4 25 35 0 32 2 35 30 35 27 0 30 3 30 30 0 34 0 34 -20 17z"></path><path id="p7nuscL7C" d="M5330 4702 c0 -11 -3 -34 -6 -51 -6 -27 -4 -31 15 -31 22 0 35 30 29 71 -4 30 -38 39 -38 11z"></path><path id="piqpxpQlM" d="M4930 4669 c0 -17 80 -47 148 -54 59 -7 62 -6 62 14 0 18 -6 21 -39 21 -21 0 -55 7 -74 15 -42 17 -97 20 -97 4z"></path><path id="p10eNsIZCE" d="M6350 4659 c0 -15 5 -20 22 -17 34 5 37 38 4 38 -20 0 -26 -5 -26 -21z"></path><path id="paPqXqnIU" d="M6120 4620 c0 -12 7 -20 18 -20 9 0 23 9 30 20 11 18 10 20 -18 20 -23 0 -30 -4 -30 -20z"></path><path id="pELctbooK" d="M5938 4623 c-16 -2 -28 -9 -28 -14 0 -5 -9 -9 -20 -9 -16 0 -20 -7 -20 -31 l0 -30 29 20 c16 11 52 26 80 32 32 7 51 16 51 25 0 14 -30 16 -92 7z"></path><path id="p12kIeF8TF" d="M5778 4559 c-80 -78 -119 -152 -224 -432 -37 -97 -10 -179 59 -185 32 -3 37 0 37 17 0 14 -6 21 -19 21 -28 0 -51 27 -51 59 0 15 13 63 29 107 16 43 40 108 53 144 28 79 27 77 37 62 9 -15 24 0 74 80 30 47 33 57 20 60 -13 2 -8 11 21 39 30 28 37 41 34 65 l-3 29 -67 -66z"></path><path id="pJCnntoeM" d="M7427 4573 c-18 -17 -5 -33 28 -33 40 0 49 24 13 34 -29 7 -33 7 -41 -1z"></path><path id="pqcKiW6i7" d="M7130 4545 c-30 -5 -84 -27 -120 -47 -36 -20 -77 -40 -92 -43 -15 -4 -30 -15 -33 -25 -3 -10 -24 -23 -50 -30 -44 -12 -62 -39 -27 -41 54 -4 77 6 153 67 15 11 47 27 73 34 26 7 46 19 46 26 0 8 5 14 10 14 6 0 10 -7 10 -15 0 -16 12 -18 48 -8 17 4 22 11 19 24 -4 14 0 19 14 19 10 0 19 -7 19 -15 0 -18 4 -18 70 -4 34 7 50 16 50 26 0 13 -10 15 -50 11 -34 -3 -50 -1 -50 6 0 14 -19 15 -90 1z"></path><path id="p1ARI0TdRx" d="M5268 4492 c-34 -7 -20 -32 17 -32 23 0 35 5 35 14 0 15 -25 24 -52 18z"></path><path id="p1mCYuHmG" d="M6106 4449 c-25 -19 -34 -48 -20 -62 13 -13 64 34 64 59 0 29 -9 30 -44 3z"></path><path id="p1DlVvmCnX" d="M4823 4410 c-68 -32 -80 -50 -33 -50 47 0 100 30 100 57 0 13 -1 23 -2 23 -2 0 -31 -13 -65 -30z"></path><path id="p66MWhw6u" d="M6612 4418 c3 -7 26 -21 51 -30 l47 -18 0 24 c0 25 -21 36 -73 36 -19 0 -27 -4 -25 -12z"></path><path id="pLkBuf3GG" d="M4993 4397 c-40 -5 -73 -14 -73 -18 0 -5 -11 -9 -25 -9 -20 0 -25 -5 -25 -25 0 -29 2 -30 41 -9 17 8 58 20 92 25 119 18 127 20 127 34 0 17 -26 17 -137 2z"></path><path id="pILUpBy6l" d="M5300 4397 c0 -8 16 -18 35 -24 33 -11 35 -10 35 13 0 21 -5 24 -35 24 -22 0 -35 -5 -35 -13z"></path><path id="p1ET2uk20g" d="M7255 4369 c-22 -17 -57 -39 -77 -50 -45 -23 -49 -39 -9 -39 45 0 61 10 61 36 0 21 5 24 35 24 32 0 35 2 35 30 0 17 -1 30 -2 30 -2 0 -21 -14 -43 -31z"></path><path id="p1AWCb02xf" d="M7350 4349 l0 -30 30 21 c44 31 45 40 6 40 -33 0 -36 -2 -36 -31z"></path><path id="pkU7vsJG3" d="M4678 4313 c-26 -30 -55 -95 -63 -140 -6 -39 -5 -43 13 -43 20 0 23 9 39 98 3 18 11 32 19 32 9 0 14 12 14 35 0 40 -1 41 -22 18z"></path><path id="pqgyhe2Is" d="M7650 4313 c0 -16 71 -53 100 -53 47 0 40 32 -10 48 -44 13 -90 16 -90 5z"></path><path id="pVoD18Qdg" d="M5793 4283 c-7 -2 -13 -11 -13 -19 0 -10 14 -14 50 -14 36 0 50 4 50 14 0 20 -55 32 -87 19z"></path><path id="pnSyYtlRZ" d="M5490 4268 c0 -7 -12 -24 -26 -39 -18 -19 -25 -35 -22 -55 l3 -28 43 40 c47 46 59 94 22 94 -11 0 -20 -5 -20 -12z"></path><path id="pGtpYUiEP" d="M5959 4263 c-10 -2 -19 -13 -22 -23 -4 -17 -11 -19 -56 -13 -36 4 -51 2 -51 -6 0 -15 61 -41 95 -41 32 0 65 33 65 65 0 25 -2 26 -31 18z"></path><path id="pFuJhBNvh" d="M4726 4244 c-9 -24 -7 -74 3 -74 5 0 21 20 34 45 l26 45 -29 0 c-16 0 -30 -7 -34 -16z"></path><path id="p3jgXK9k7" d="M6510 4225 c0 -30 3 -35 24 -35 23 0 24 2 13 35 -6 19 -16 35 -24 35 -8 0 -13 -13 -13 -35z"></path><path id="pLtweSguE" d="M5354 4202 c-63 -56 -133 -104 -170 -115 -37 -11 -46 -37 -13 -37 11 0 17 -4 14 -10 -3 -5 -15 -10 -26 -10 -13 0 -19 -7 -19 -21 0 -19 4 -21 37 -14 58 11 109 55 63 55 -13 0 -20 7 -20 20 0 16 7 20 35 20 24 0 35 5 35 15 0 8 9 15 20 15 13 0 20 -7 20 -20 0 -27 13 -25 47 5 l28 24 -27 1 c-21 0 -28 5 -28 20 0 15 7 20 25 20 22 0 25 4 25 35 0 19 -1 35 -2 35 -2 0 -22 -17 -44 -38z"></path><path id="px2s9t8pn" d="M5750 4230 c0 -5 -7 -10 -15 -10 -31 0 -65 -23 -65 -46 0 -18 4 -21 23 -17 12 4 34 14 48 24 14 10 37 21 52 24 40 10 34 35 -8 35 -19 0 -35 -4 -35 -10z"></path><path id="pRbD7fxU5" d="M6648 4195 c-20 -14 -48 -25 -62 -25 -15 0 -26 -4 -26 -10 0 -5 -20 -10 -45 -10 l-45 0 16 -25 c9 -14 25 -25 35 -25 10 0 39 11 65 25 26 14 59 25 73 25 53 0 71 11 71 41 0 23 -4 29 -23 29 -12 0 -39 -11 -59 -25z"></path><path id="p17Qwi4cBN" d="M6065 4174 c-81 -57 -86 -64 -42 -64 30 0 37 4 37 20 0 16 7 20 30 20 27 0 30 3 30 30 0 17 -1 30 -2 29 -2 0 -25 -16 -53 -35z"></path><path id="pNCxodlWS" d="M6790 4180 c0 -21 16 -25 58 -14 39 11 27 34 -18 34 -33 0 -40 -3 -40 -20z"></path><path id="p104gS0S7S" d="M4612 4088 c2 -15 11 -24 26 -26 20 -3 23 0 20 20 -2 15 -11 24 -26 26 -20 3 -23 0 -20 -20z"></path><path id="pIWWCj1n0" d="M4680 4089 c0 -15 5 -20 22 -17 34 5 37 38 4 38 -20 0 -26 -5 -26 -21z"></path><path id="pFfJQZi30" d="M5934 4095 c-46 -19 -82 -75 -49 -75 11 0 80 33 93 45 1 1 -1 11 -5 23 -7 19 -11 19 -39 7z"></path><path id="psVUxLcxn" d="M5610 4055 c0 -24 5 -35 15 -35 8 0 15 -7 15 -15 0 -11 11 -15 38 -15 l37 0 -37 35 c-21 18 -38 41 -38 49 0 9 -7 16 -15 16 -10 0 -15 -11 -15 -35z"></path><path id="p13Db6a8nj" d="M5060 4063 c-8 -3 -42 -18 -75 -34 -33 -16 -65 -29 -72 -29 -7 0 -13 -7 -13 -16 0 -13 8 -15 39 -12 34 3 37 1 28 -14 -7 -10 -30 -19 -59 -23 -31 -5 -48 -12 -48 -21 0 -9 -12 -14 -35 -14 -34 0 -35 -1 -35 -37 l0 -38 29 31 c22 23 42 33 78 38 26 4 62 15 79 24 17 9 50 27 73 40 55 30 53 46 -4 40 -25 -3 -45 -2 -45 3 0 5 11 9 25 9 14 0 25 5 25 10 0 6 14 10 30 10 23 0 30 4 30 20 0 20 -18 25 -50 13z"></path><path id="pDlCB3fva" d="M4725 3990 c-3 -5 0 -18 7 -29 16 -26 6 -36 -21 -20 -26 17 -38 5 -22 -24 10 -19 9 -32 -8 -75 l-21 -52 25 0 c20 0 25 5 25 25 0 14 5 25 10 25 6 0 10 16 10 35 0 31 3 35 25 35 15 0 25 6 25 14 0 8 16 16 40 20 31 5 40 11 40 26 0 22 -16 25 -56 10 -21 -8 -31 -7 -44 5 -19 17 -27 19 -35 5z"></path><path id="p12vlZGDLx" d="M5332 3948 c-24 -45 -93 -128 -106 -128 -4 0 -22 -10 -39 -23 -18 -13 -51 -29 -74 -36 -50 -14 -60 -26 -38 -47 14 -15 21 -15 58 -4 23 8 51 22 63 32 11 10 26 18 32 18 7 0 12 4 12 8 0 5 12 15 28 23 47 24 92 54 92 62 0 4 -11 7 -25 7 -31 0 -33 17 -2 22 17 2 23 11 25 36 2 20 9 32 18 32 8 0 14 9 14 20 0 36 -34 23 -58 -22z"></path><path id="pz2UhU0T6" d="M5410 3971 c0 -11 5 -23 10 -26 20 -12 9 -34 -17 -37 -22 -2 -29 -9 -31 -30 -3 -24 -1 -27 16 -20 18 6 82 77 82 89 0 2 -5 13 -10 24 -14 25 -50 25 -50 0z"></path><path id="pazKWjqYW" d="M5750 3945 c-7 -8 -23 -15 -36 -15 -29 0 -31 -15 -3 -30 28 -16 59 -9 76 17 13 19 13 23 -5 32 -15 8 -23 7 -32 -4z"></path><path id="pTlgBm8qU" d="M4840 3769 c0 -25 33 -22 38 4 2 12 -3 17 -17 17 -15 0 -21 -6 -21 -21z"></path><path id="pVfs9H7Ik" d="M7782 3728 c-7 -7 -12 -20 -12 -31 0 -10 -13 -29 -28 -42 -16 -13 -37 -43 -48 -67 -10 -24 -42 -78 -71 -121 -29 -44 -55 -88 -58 -98 -4 -10 -11 -19 -16 -19 -6 0 -19 -21 -31 -46 -15 -34 -17 -49 -9 -57 8 -8 16 -8 28 -1 18 11 23 19 49 82 9 23 21 42 26 42 9 0 68 123 68 141 0 5 18 32 40 60 22 28 40 57 40 64 0 7 7 18 15 25 8 7 15 25 15 41 0 21 4 27 15 23 8 -4 15 -1 15 5 0 15 -23 14 -38 -1z"></path><path id="p2C8dYung" d="M4983 3690 c-18 -8 -33 -21 -33 -27 0 -7 -4 -13 -10 -13 -5 0 -10 -9 -10 -20 0 -13 7 -20 20 -20 11 0 20 4 20 9 0 4 12 20 26 34 36 37 29 57 -13 37z"></path><path id="p6mWtHDle" d="M4597 3682 c-18 -4 -18 -5 -1 -23 23 -25 54 -25 54 0 0 11 8 22 18 24 13 4 12 5 -5 6 -12 0 -24 -5 -26 -11 -4 -9 -8 -10 -14 -3 -4 6 -16 9 -26 7z"></path><path id="pDvarZKyJ" d="M4503 3654 c-6 -16 14 -36 31 -31 19 6 17 26 -4 37 -16 9 -22 8 -27 -6z"></path><path id="psFsNJ9yA" d="M4606 3595 c-5 -15 12 -35 31 -35 7 0 13 8 13 19 0 22 -36 35 -44 16z"></path><path id="p1DMSPoKTC" d="M6185 3599 c-71 -11 -111 -24 -141 -48 -15 -12 -31 -21 -36 -21 -6 0 -38 -13 -72 -29 -33 -15 -97 -41 -141 -56 -44 -15 -84 -31 -89 -36 -6 -5 -17 -9 -25 -9 -19 0 -171 -70 -189 -87 -7 -7 -19 -13 -26 -13 -7 0 -23 -11 -36 -25 -19 -20 -22 -30 -14 -43 14 -22 90 -28 113 -10 52 42 305 146 429 177 220 55 277 63 487 66 110 2 201 4 202 4 8 4 -51 53 -87 74 -84 46 -262 73 -375 56z"></path><path id="pVmWLceO5" d="M4473 3553 c9 -2 25 -2 35 0 9 3 1 5 -18 5 -19 0 -27 -2 -17 -5z"></path><path id="pbcp4UTJX" d="M752 3525 c-24 -53 -10 -105 29 -105 15 0 15 -4 3 -37 -7 -21 -13 -46 -14 -55 0 -15 -9 -18 -46 -18 l-45 0 3 -37 3 -38 53 -3 c47 -3 52 -1 52 17 0 12 5 21 10 21 6 0 10 -7 10 -15 0 -10 11 -15 35 -15 31 0 35 3 41 35 3 19 3 48 -1 63 -4 15 -9 58 -12 96 -6 89 -23 116 -73 116 -30 0 -39 -5 -48 -25z"></path><path id="pozTXysqP" d="M4623 3518 c2 -7 10 -13 17 -13 7 0 15 6 18 13 2 7 -5 12 -18 12 -13 0 -20 -5 -17 -12z"></path><path id="pyXE8A9ns" d="M570 3470 l0 -40 70 0 70 0 0 40 0 40 -70 0 -70 0 0 -40z"></path><path id="pCDDkD3Fu" d="M4980 2901 c0 -20 17 -37 27 -28 7 8 -7 47 -18 47 -5 0 -9 -9 -9 -19z"></path><path id="pcp3rTjfU" d="M68 2223 l-68 -4 0 -38 0 -38 130 -23 c86 -14 146 -20 175 -15 44 6 45 7 45 45 0 21 -4 42 -10 45 -23 14 -124 35 -163 33 -23 -1 -72 -3 -109 -5z"></path><path id="p123DbmP8W" d="M2130 1860 l0 -40 70 0 70 0 0 34 c0 40 -11 46 -86 46 l-54 0 0 -40z"></path><path id="p9MbsqhXM" d="M3037 1813 c-4 -3 -7 -26 -7 -50 0 -39 2 -43 25 -43 14 0 25 -4 25 -10 0 -5 16 -10 36 -10 l37 0 -6 50 c-3 28 -9 55 -12 60 -7 11 -88 14 -98 3z"></path><path id="pIW6uJpb6" d="M5992 768 c-18 -18 -15 -35 8 -41 20 -5 32 5 43 36 5 13 1 17 -16 17 -13 0 -28 -5 -35 -12z"></path></g></g><g id="l01ShxefKQeLyZuXbfkTUld" fill="rgb(177,198,211)" style="transform: none;"><g style="transform: none;"><path id="p18ppy9mZD" d="M4684 5588 c9 -50 24 -201 32 -314 8 -121 5 -124 -99 -124 -69 0 -77 -6 -77 -55 0 -51 7 -55 91 -55 90 0 92 -2 103 -88 26 -204 162 -321 391 -338 51 -4 123 -3 159 1 74 7 89 23 79 78 l-5 27 -122 0 c-179 1 -265 36 -329 135 -28 44 -32 58 -32 120 l0 70 130 3 c88 2 132 7 137 15 12 19 9 82 -4 95 -8 8 -54 12 -139 12 -70 0 -130 4 -133 8 -7 11 -33 232 -42 350 l-7 92 -69 0 -70 0 6 -32z"></path><path id="pV5TsmzwA" d="M5278 5323 c3 -192 8 -303 15 -311 12 -16 82 -9 104 10 8 6 13 34 13 74 0 35 4 64 10 64 5 0 35 -16 66 -36 187 -120 440 -106 408 23 -6 24 -9 24 -53 17 -25 -5 -59 -8 -76 -8 -55 2 -139 34 -180 69 -22 19 -43 35 -46 35 -3 0 -22 24 -41 53 -43 65 -86 179 -94 253 l-7 54 -62 0 -62 0 5 -297z"></path><path id="piolA9WuW" d="M5982 5531 c4 -77 8 -96 34 -137 57 -93 236 -214 316 -214 50 0 74 13 93 50 27 52 21 62 -31 54 -117 -17 -294 145 -319 294 l-7 42 -45 0 -45 0 4 -89z"></path><path id="p1FY2ezAek" d="M6699 5594 c-13 -14 -43 -37 -67 -51 -73 -43 -145 -144 -93 -130 52 13 311 182 311 202 0 3 -28 5 -63 5 -55 0 -67 -3 -88 -26z"></path><path id="paUFYeqKn" d="M7162 5538 c-18 -124 -20 -118 38 -118 54 0 52 -3 64 84 8 59 19 62 67 17 58 -54 114 -80 188 -87 l61 -7 0 35 c0 32 -2 35 -57 53 -32 10 -64 23 -70 28 -7 5 -13 6 -13 3 0 -4 -18 11 -41 34 l-41 40 -92 0 -93 0 -11 -82z"></path><path id="pYExxG1En" d="M7970 5602 c-24 -29 -127 -82 -159 -82 -17 0 -33 -4 -36 -10 -3 -5 -17 -10 -31 -10 -19 0 -24 -5 -24 -26 0 -14 4 -23 9 -19 5 3 12 1 16 -5 23 -37 178 20 283 104 39 32 72 60 72 62 0 2 -26 4 -57 4 -43 0 -62 -5 -73 -18z"></path><path id="p10rJwyF3o" d="M8180 5613 c0 -5 21 -21 48 -38 44 -28 53 -30 137 -29 89 1 159 20 220 61 17 11 12 13 -43 13 -34 0 -62 -4 -62 -10 0 -5 -11 -9 -25 -8 -14 1 -25 6 -25 10 0 4 -56 8 -125 8 -69 0 -125 -3 -125 -7z m225 -23 c-3 -5 -24 -10 -46 -10 -21 0 -39 5 -39 10 0 6 21 10 46 10 27 0 43 -4 39 -10z"></path><path id="p2r9P3IXh" d="M8694 5163 c-22 -22 -53 -92 -54 -118 0 -11 -6 -29 -13 -40 -8 -11 -29 -63 -47 -115 -18 -52 -38 -104 -45 -115 -6 -11 -20 -42 -30 -70 -21 -55 -81 -170 -105 -198 -26 -32 -129 -98 -193 -124 -81 -33 -191 -53 -292 -53 -93 0 -142 16 -174 56 -36 46 -31 66 78 334 17 41 40 93 51 116 11 23 23 55 26 72 6 32 6 32 -34 32 l-40 0 -32 -77 c-53 -127 -193 -403 -204 -402 -30 3 -37 -2 -31 -21 4 -12 2 -26 -3 -33 -12 -15 -42 -119 -42 -146 0 -18 6 -21 49 -21 45 0 52 3 68 31 11 18 24 28 33 25 8 -2 33 -12 55 -20 27 -10 77 -15 155 -16 101 0 128 4 210 30 278 87 400 180 474 361 42 102 96 246 132 349 12 36 29 82 38 102 29 68 12 103 -30 61z"></path><path id="ptP7cC1Na" d="M6910 4913 c-47 -8 -195 -55 -230 -73 -83 -43 -182 -178 -221 -302 -20 -61 -21 -83 -16 -201 5 -140 17 -187 56 -221 21 -19 22 -19 73 8 48 25 67 28 228 37 215 12 285 24 375 62 95 40 150 72 213 125 51 44 113 138 127 193 6 25 4 27 -35 31 -44 4 -152 -4 -304 -22 -75 -9 -98 -17 -154 -50 -76 -46 -110 -54 -200 -48 -61 5 -221 56 -246 79 -16 14 35 108 85 160 77 79 202 129 322 129 71 0 177 -16 276 -41 41 -10 91 -19 111 -19 32 0 39 -5 59 -40 21 -37 25 -40 66 -40 24 0 47 4 50 10 8 13 -27 91 -51 111 -21 18 -169 66 -304 99 -80 19 -212 25 -280 13z m445 -413 c9 -14 -19 -61 -57 -96 -118 -108 -243 -151 -538 -183 -47 -5 -88 -16 -110 -30 -46 -27 -64 -27 -89 5 -40 50 -39 214 2 222 9 2 55 -11 102 -28 110 -42 177 -40 251 8 78 51 126 71 169 73 22 0 74 9 115 19 86 20 146 24 155 10z"></path><path id="puiiDLX6u" d="M6256 4798 c-18 -26 -21 -64 -6 -73 6 -4 22 -24 36 -46 19 -31 30 -39 53 -39 44 0 61 10 61 34 0 33 -55 113 -89 130 -38 20 -37 20 -55 -6z"></path><path id="pSFUivDAB" d="M6055 4686 c-142 -14 -165 -25 -258 -115 -92 -88 -147 -189 -220 -402 -36 -103 -40 -134 -27 -174 10 -29 18 -36 53 -45 23 -6 51 -16 62 -22 58 -34 79 -41 93 -31 23 14 39 45 26 49 -5 3 -40 27 -77 55 -64 48 -67 52 -67 93 l0 42 80 39 c79 39 81 39 128 25 63 -18 98 -17 122 5 34 31 26 52 -22 58 -24 3 -67 10 -97 15 -48 8 -59 6 -98 -15 -81 -43 -91 -28 -44 67 43 85 84 142 138 190 72 63 97 73 206 78 93 4 99 6 122 34 26 31 33 69 13 67 -7 -1 -67 -7 -133 -13z"></path><path id="p1CzLvQZJj" d="M6230 4506 c-77 -29 -106 -45 -129 -70 -36 -38 -16 -54 36 -28 21 11 60 23 87 27 l49 8 -7 -29 c-25 -101 -163 -237 -324 -318 -53 -27 -70 -46 -57 -65 8 -15 209 87 304 154 42 30 95 73 118 97 48 49 106 167 101 207 -3 25 -5 26 -73 28 -40 2 -85 -3 -105 -11z"></path><path id="p16QrGMW5y" d="M5060 4479 c-25 -5 -69 -14 -99 -20 -80 -16 -234 -94 -272 -136 -40 -46 -67 -111 -75 -179 -8 -67 5 -88 50 -79 63 13 64 13 75 77 13 74 28 98 89 143 70 51 109 67 197 82 143 23 182 26 251 18 55 -6 73 -12 96 -35 47 -47 35 -112 -31 -165 -85 -68 -151 -102 -221 -114 -39 -6 -97 -25 -128 -41 -32 -16 -75 -31 -97 -35 -22 -3 -60 -11 -83 -17 -36 -9 -46 -8 -53 3 -7 11 -11 11 -21 1 -10 -10 -10 -14 1 -21 21 -13 3 -32 -25 -25 -22 6 -23 4 -18 -22 5 -28 -14 -81 -52 -144 -9 -16 -13 -38 -9 -62 3 -21 3 -38 1 -38 -3 0 -16 11 -30 25 -25 25 -56 34 -56 16 0 -11 67 -71 80 -71 5 0 11 9 15 19 10 31 57 35 130 12 36 -12 80 -30 97 -41 48 -29 78 -25 117 15 18 19 39 35 46 35 25 0 139 53 207 97 38 23 87 52 110 64 121 60 147 156 41 147 -31 -2 -41 -9 -53 -33 -45 -90 -139 -168 -240 -200 -30 -10 -69 -30 -85 -46 -38 -36 -73 -37 -125 -4 -45 28 -47 33 -23 50 22 16 9 33 -32 41 -45 8 -49 25 -16 61 20 22 42 33 86 41 33 7 79 25 103 42 26 17 74 36 118 46 103 22 286 128 363 207 27 28 35 46 39 85 9 100 -45 179 -138 200 -59 14 -263 14 -330 1z"></path><path id="pHclBiAYp" d="M323 4373 c-18 -6 -3 -33 18 -33 10 0 19 3 19 6 0 12 -26 30 -37 27z"></path><path id="pRgefIBPj" d="M440 4206 c0 -10 -9 -16 -25 -16 -17 0 -25 -5 -25 -18 0 -10 -7 -27 -15 -38 -21 -28 -19 -54 5 -54 11 0 20 -4 20 -10 0 -11 40 -14 40 -2 0 4 10 18 21 32 20 24 21 24 16 3 -3 -15 0 -23 8 -23 7 0 27 -3 45 -6 l32 -7 -39 62 c-43 67 -83 104 -83 77z"></path><path id="pnoi9cUzv" d="M9990 4203 c0 -9 -113 -123 -179 -179 -24 -21 -47 -47 -52 -59 -28 -61 -75 -118 -155 -189 -49 -43 -97 -92 -107 -109 -10 -16 -24 -36 -32 -43 -7 -7 -23 -30 -36 -51 -62 -102 -189 -173 -309 -173 -27 0 -72 -9 -102 -19 -82 -30 -183 -58 -298 -82 -83 -17 -132 -21 -235 -19 -195 5 -312 5 -508 1 -157 -2 -184 -5 -240 -26 -34 -13 -88 -31 -119 -40 -39 -11 -59 -22 -63 -36 -8 -23 3 -76 20 -104 26 -41 27 -94 5 -166 -17 -53 -26 -69 -40 -69 -11 0 -22 10 -25 23 -4 12 -18 33 -30 47 -13 14 -26 41 -30 60 -9 45 -55 183 -65 193 -4 4 -13 -6 -20 -23 -7 -17 -25 -37 -41 -45 -25 -13 -28 -20 -31 -82 -4 -60 -1 -76 26 -132 21 -44 41 -70 61 -81 24 -14 30 -23 30 -51 0 -33 -1 -34 -36 -31 -26 2 -38 -2 -43 -13 -5 -14 -9 -14 -35 0 -41 21 -110 20 -118 -2 -6 -16 38 -65 66 -74 7 -3 28 -58 47 -124 42 -145 101 -245 146 -245 10 0 21 -7 24 -15 4 -8 13 -15 22 -15 13 0 13 -3 -2 -19 -17 -18 -16 -22 8 -74 52 -114 53 -146 14 -332 -37 -178 -42 -222 -30 -251 l12 -26 108 7 c59 4 190 16 292 26 102 11 275 26 385 34 110 8 286 22 390 30 105 9 280 22 390 30 110 8 254 19 320 25 227 20 500 40 563 40 l62 0 0 465 0 465 -27 0 c-16 0 -95 -11 -178 -25 -82 -14 -164 -27 -182 -29 -17 -3 -64 -9 -105 -15 -40 -5 -129 -15 -198 -21 -69 -7 -168 -20 -220 -30 -52 -11 -131 -24 -175 -29 -44 -5 -120 -16 -170 -24 -49 -8 -102 -15 -117 -15 -15 -1 -62 -11 -105 -22 -43 -10 -103 -21 -133 -24 -101 -8 -234 -27 -291 -42 -30 -8 -69 -14 -85 -14 -16 0 -51 -7 -78 -15 -27 -8 -63 -16 -80 -17 -17 -1 -36 -5 -42 -10 -6 -4 -31 -9 -55 -9 -24 -1 -48 -5 -54 -9 -15 -12 -157 -39 -172 -33 -21 8 -15 49 12 81 29 34 61 44 225 67 167 23 289 44 425 70 127 26 220 40 350 54 44 5 123 16 175 25 248 43 330 58 395 71 39 8 97 16 130 19 33 2 83 9 110 14 57 12 153 25 344 48 74 8 157 19 184 25 27 5 65 9 83 9 l34 0 0 730 c0 402 -2 730 -5 730 -3 0 -5 -3 -5 -7z"></path><path id="p12pIp460O" d="M560 4050 c0 -5 -18 -10 -40 -10 -33 0 -40 -3 -40 -20 0 -11 -4 -20 -10 -20 -5 0 -10 -18 -10 -39 0 -22 -6 -46 -13 -53 -7 -7 -16 -21 -20 -31 -4 -9 -17 -21 -29 -26 -13 -5 -22 -12 -20 -17 1 -5 -47 -10 -108 -12 l-110 -3 0 31 c0 20 5 30 15 30 8 0 15 9 15 20 0 15 7 20 25 20 19 0 25 -5 25 -21 0 -21 1 -21 25 5 13 14 27 42 31 61 3 19 10 35 15 35 5 0 9 9 9 20 0 17 -7 20 -49 20 -27 0 -63 3 -80 6 -28 6 -31 4 -31 -20 0 -14 -4 -26 -10 -26 -5 0 -10 -6 -10 -13 0 -7 -9 -19 -20 -27 -27 -19 -27 -60 0 -60 11 0 20 -4 20 -10 0 -5 -13 -10 -30 -10 -35 0 -38 -10 -10 -30 31 -23 26 -50 -10 -50 -16 0 -30 -5 -30 -11 0 -7 -12 -10 -30 -7 l-30 5 0 -1044 0 -1045 92 9 c111 10 372 10 593 1 399 -16 926 -20 1155 -8 349 18 603 9 714 -26 41 -13 60 -14 83 -6 21 7 85 6 216 -4 282 -20 322 -20 352 0 15 10 24 20 21 23 -3 3 2 12 11 19 13 8 44 11 108 7 78 -5 96 -3 130 14 22 12 55 24 73 28 57 12 44 37 -53 109 -22 17 -96 84 -163 150 -68 67 -132 129 -143 139 -26 23 -24 52 4 64 18 8 3 12 -75 18 -54 4 -105 4 -115 1 -26 -10 -291 -7 -358 4 -44 7 -73 7 -109 -2 l-49 -12 -31 35 c-55 61 -75 69 -183 69 -135 1 -184 26 -312 162 -19 20 -38 35 -42 33 -4 -3 -9 1 -12 9 -3 8 -41 40 -84 72 -43 32 -84 66 -91 76 -7 10 -32 31 -55 47 -50 35 -320 300 -360 353 -15 21 -66 81 -112 134 -47 53 -101 121 -120 150 -20 30 -41 54 -46 54 -6 0 -16 15 -24 33 -7 17 -28 46 -47 62 -18 17 -39 40 -45 50 -13 20 -27 40 -100 145 -24 33 -43 66 -43 73 0 8 -10 19 -22 26 -22 11 -108 129 -108 145 0 5 -11 17 -25 28 -14 11 -25 28 -25 38 0 11 -9 24 -20 30 -14 7 -20 7 -20 0z m-320 -70 c0 -13 -7 -20 -20 -20 -13 0 -20 7 -20 20 0 13 7 20 20 20 13 0 20 -7 20 -20z m585 -486 c14 -22 15 -28 4 -35 -34 -22 -63 1 -47 37 14 31 22 30 43 -2z m-145 -24 c0 -5 -18 -10 -40 -10 -22 0 -40 5 -40 10 0 6 18 10 40 10 22 0 40 -4 40 -10z m172 -152 c3 -17 2 -18 -33 -18 -22 0 -21 10 4 75 l12 30 7 -35 c4 -19 8 -43 10 -52z m-92 -48 c0 -5 -9 -10 -19 -10 -11 0 -23 5 -26 10 -4 6 5 10 19 10 14 0 26 -4 26 -10z m-515 -1084 c30 -8 60 -18 65 -21 18 -11 11 -23 -17 -28 -33 -6 -263 33 -263 44 0 5 27 8 61 8 33 -1 63 2 66 5 9 9 27 7 88 -8z m1985 -326 c11 -7 4 -10 -27 -10 -24 0 -43 5 -43 10 0 13 50 13 70 0z m873 -76 c11 -11 -5 -34 -23 -34 -16 0 -19 11 -11 38 2 5 28 2 34 -4z"></path><path id="pB9o4nwvh" d="M240 3855 c0 -8 7 -15 16 -15 14 0 14 3 4 15 -7 8 -14 15 -16 15 -2 0 -4 -7 -4 -15z"></path><path id="pCtGgdJqF" d="M4507 3654 c-11 -11 3 -24 24 -24 12 0 19 5 17 13 -5 14 -31 21 -41 11z"></path><path id="pbKaiblLF" d="M4610 3591 c0 -12 29 -35 36 -28 11 10 -5 37 -21 37 -8 0 -15 -4 -15 -9z"></path><path id="pNE1a0NkN" d="M4876 3085 c-19 -14 -14 -35 9 -35 15 0 45 27 45 41 0 14 -32 10 -54 -6z"></path><path id="pRghm4a5j" d="M5117 2873 c67 -111 191 -378 180 -389 -2 -2 -18 2 -35 8 -26 10 -37 10 -54 -1 -13 -8 -23 -10 -25 -4 -2 6 -10 19 -19 29 -13 17 -14 16 -9 -21 l6 -40 -26 30 -27 30 7 -35 7 -35 -26 30 c-24 29 -25 29 -26 7 0 -14 -4 -21 -11 -17 -5 4 -128 7 -272 7 -144 0 -266 4 -272 8 -5 4 -29 11 -52 15 -24 4 -43 8 -43 10 0 25 29 126 53 188 29 76 30 111 0 72 -24 -33 -93 -178 -93 -196 0 -24 -10 -49 -20 -49 -5 0 -16 21 -26 48 -24 65 -32 73 -70 70 l-34 -2 5 -51 c2 -27 7 -123 10 -213 7 -189 12 -212 53 -212 26 0 33 7 60 64 17 35 34 66 39 69 14 9 25 -3 88 -93 77 -113 320 -353 379 -375 47 -18 97 -17 103 2 3 8 -11 15 -37 19 -47 8 -36 24 16 24 23 0 33 -5 37 -20 9 -33 36 -35 91 -7 38 19 71 27 129 31 43 2 88 11 100 19 31 20 98 87 129 128 60 79 150 279 177 395 11 47 10 55 -13 107 -43 99 -136 243 -156 245 -25 1 -90 25 -99 36 -7 8 -34 20 -61 27 -32 8 -50 19 -53 31 -4 12 -14 18 -35 18 -21 0 -33 6 -37 19 -5 17 -32 31 -62 31 -6 0 4 -26 24 -57z m-242 -1013 c3 -5 -3 -10 -14 -10 -11 0 -23 5 -26 10 -3 6 3 10 14 10 11 0 23 -4 26 -10z"></path><path id="phcSJ81hz" d="M3700 2499 c-144 -79 -225 -120 -302 -154 -139 -60 -141 -43 24 -195 146 -136 287 -240 323 -240 30 0 41 11 60 55 15 36 15 59 5 240 -6 110 -12 229 -13 264 -1 36 -6 66 -12 68 -5 1 -44 -16 -85 -38z"></path><path id="p16FoklS1u" d="M6830 2385 c-15 -18 -14 -20 23 -29 30 -7 33 0 13 27 -16 21 -20 21 -36 2z"></path><path id="pjvouILqE" d="M6687 2241 c-99 -129 -150 -209 -144 -226 3 -7 23 -15 44 -17 37 -5 41 -2 116 76 87 91 167 189 167 205 0 6 -6 11 -14 11 -7 0 -30 11 -50 25 -20 14 -38 25 -40 25 -2 0 -38 -45 -79 -99z"></path><path id="p1EhGwxmZW" d="M4488 1963 c-23 -26 -48 -79 -48 -101 0 -19 18 -32 44 -32 8 0 21 20 30 45 28 72 11 130 -26 88z"></path><path id="p10lyrnEW9" d="M9970 1644 c-8 -2 -114 -8 -235 -14 -121 -6 -317 -18 -435 -26 -118 -7 -286 -18 -372 -24 -87 -5 -195 -13 -240 -18 -46 -6 -99 -10 -118 -11 -98 -3 -260 -25 -295 -40 -32 -14 -68 -17 -188 -16 -187 1 -397 -28 -397 -56 0 -5 16 -17 35 -26 39 -18 38 -17 60 -126 13 -61 13 -82 4 -93 -18 -22 -48 -17 -55 10 -7 30 -101 82 -169 95 -48 9 -56 1 -32 -28 23 -27 40 -103 38 -164 -2 -57 -1 -57 24 -51 28 7 31 -2 10 -30 -17 -22 -20 -40 -6 -32 11 7 25 -237 18 -317 -4 -44 -2 -61 11 -73 14 -15 14 -20 -10 -63 -15 -26 -32 -77 -39 -115 -11 -65 -10 -70 9 -85 30 -23 71 -124 76 -189 3 -31 8 -78 12 -105 l7 -47 1158 0 1159 0 0 825 c0 454 -3 824 -7 824 -5 -1 -15 -3 -23 -5z"></path><path id="pSc0clEIg" d="M133 1603 l-133 -4 0 -370 0 -371 38 6 c20 3 82 10 137 16 55 6 125 17 155 25 61 15 430 45 985 80 248 16 424 30 575 45 52 6 219 21 370 35 546 49 608 55 800 75 107 11 281 29 385 40 105 11 282 29 394 39 199 18 206 19 226 45 19 24 21 25 32 7 6 -10 25 -21 42 -24 35 -7 286 20 311 33 13 7 19 30 24 97 3 48 9 99 12 113 3 14 -1 33 -8 43 -12 16 -18 16 -88 2 -41 -8 -91 -17 -111 -20 -43 -6 -103 -44 -105 -65 -1 -8 -2 -20 -3 -26 0 -6 -19 -29 -41 -52 -22 -22 -40 -48 -40 -56 0 -23 -17 -20 -25 4 -3 11 -27 34 -51 51 -34 23 -44 35 -38 47 16 37 9 66 -18 79 -29 14 -46 15 -603 31 -198 6 -443 18 -545 26 -179 16 -973 33 -1865 42 -203 1 -440 4 -525 6 -85 2 -215 2 -287 1z"></path><path id="p6JGsQ8IB" d="M7518 1483 c-61 -10 -62 -76 -1 -92 46 -13 133 13 133 40 0 34 -70 62 -132 52z"></path><path id="p7JObCJvT" d="M4290 1189 c-30 -5 -80 -13 -111 -19 -30 -5 -69 -10 -87 -10 -17 0 -34 -4 -37 -10 -3 -5 -27 -9 -53 -8 -53 2 -358 -11 -412 -17 -19 -3 -102 -9 -183 -15 -82 -5 -151 -12 -155 -14 -4 -2 -45 -7 -92 -10 -47 -4 -114 -11 -150 -16 -36 -5 -155 -11 -265 -14 -122 -4 -222 -11 -255 -20 -30 -8 -98 -17 -150 -21 -174 -12 -428 -40 -493 -55 -41 -9 -74 -14 -317 -46 -63 -8 -129 -21 -147 -29 -17 -8 -49 -15 -71 -15 -22 0 -136 -11 -254 -25 -117 -13 -244 -26 -283 -28 -70 -5 -194 -20 -312 -38 -34 -5 -120 -12 -190 -15 -70 -2 -161 -10 -201 -16 l-72 -11 0 -368 0 -369 2400 0 c1320 0 2400 2 2400 4 0 2 -16 28 -35 58 -33 49 -67 115 -109 211 -18 39 -28 104 -50 332 -8 77 -24 194 -35 260 -12 66 -19 132 -16 147 7 30 -28 121 -57 150 -10 10 -18 23 -18 28 0 12 -111 11 -190 -1z"></path><path id="p6EGtix52" d="M5510 660 c0 -26 4 -30 26 -30 l25 0 -18 30 c-9 17 -21 30 -25 30 -4 0 -8 -13 -8 -30z"></path></g></g></svg>